%FSLAX45Y45*%
G04 Gerber Fmt 4.5, Leading zero omitted, Abs format (unit mm)*
G04 Created by KiCad (PCBNEW 5.1.10-88a1d61d58~88~ubuntu16.04.1) date 2021-10-02 00:42:27*
%MOMM*%
%LPD*%
G01*
G04 APERTURE LIST*
%TA.AperFunction,Profile*%
%ADD10C,0.050000*%
%TD*%
%ADD11C,0.200000*%
%ADD12C,0.300000*%
G04 APERTURE END LIST*
D10*
X5000000Y-5000000D02*
X5000000Y-15000000D01*
X21000000Y-5000000D02*
X5000000Y-5000000D01*
X21000000Y-15000000D02*
X21000000Y-5000000D01*
X5000000Y-15000000D02*
X21000000Y-15000000D01*
D11*
X15141700Y-6278900D02*
X15405700Y-6542900D01*
X15405700Y-6278900D02*
X15141700Y-6542900D01*
X15141700Y-8069600D02*
X15405700Y-8333600D01*
X15405700Y-8069600D02*
X15141700Y-8333600D01*
X15143000Y-9868500D02*
X15407000Y-10132500D01*
X15407000Y-9868500D02*
X15143000Y-10132500D01*
X15143000Y-11668500D02*
X15407000Y-11932500D01*
X15407000Y-11668500D02*
X15143000Y-11932500D01*
X19789700Y-7477900D02*
X20053700Y-7741900D01*
X20053700Y-7477900D02*
X19789700Y-7741900D01*
X19789700Y-9268600D02*
X20053700Y-9532600D01*
X20053700Y-9268600D02*
X19789700Y-9532600D01*
X19791000Y-11067500D02*
X20055000Y-11331500D01*
X20055000Y-11067500D02*
X19791000Y-11331500D01*
X19791000Y-12867500D02*
X20055000Y-13131500D01*
X20055000Y-12867500D02*
X19791000Y-13131500D01*
X5660000Y-5500000D02*
G75*
G03*
X5660000Y-5500000I-160000J0D01*
G01*
X5660000Y-14500000D02*
G75*
G03*
X5660000Y-14500000I-160000J0D01*
G01*
X20660000Y-5500000D02*
G75*
G03*
X20660000Y-5500000I-160000J0D01*
G01*
X20660000Y-14500000D02*
G75*
G03*
X20660000Y-14500000I-160000J0D01*
G01*
X9738800Y-5791000D02*
X9738800Y-6191000D01*
X9538800Y-5991000D02*
X9938800Y-5991000D01*
D12*
X5036429Y-15715714D02*
X5036429Y-15415714D01*
X5107857Y-15415714D01*
X5150714Y-15430000D01*
X5179286Y-15458571D01*
X5193571Y-15487143D01*
X5207857Y-15544286D01*
X5207857Y-15587143D01*
X5193571Y-15644286D01*
X5179286Y-15672857D01*
X5150714Y-15701428D01*
X5107857Y-15715714D01*
X5036429Y-15715714D01*
X5336429Y-15715714D02*
X5336429Y-15515714D01*
X5336429Y-15572857D02*
X5350714Y-15544286D01*
X5365000Y-15530000D01*
X5393571Y-15515714D01*
X5422143Y-15515714D01*
X5522143Y-15715714D02*
X5522143Y-15515714D01*
X5522143Y-15415714D02*
X5507857Y-15430000D01*
X5522143Y-15444286D01*
X5536429Y-15430000D01*
X5522143Y-15415714D01*
X5522143Y-15444286D01*
X5707857Y-15715714D02*
X5679286Y-15701428D01*
X5665000Y-15672857D01*
X5665000Y-15415714D01*
X5865000Y-15715714D02*
X5836428Y-15701428D01*
X5822143Y-15672857D01*
X5822143Y-15415714D01*
X6207857Y-15715714D02*
X6207857Y-15415714D01*
X6307857Y-15630000D01*
X6407857Y-15415714D01*
X6407857Y-15715714D01*
X6679286Y-15715714D02*
X6679286Y-15558571D01*
X6665000Y-15530000D01*
X6636428Y-15515714D01*
X6579286Y-15515714D01*
X6550714Y-15530000D01*
X6679286Y-15701428D02*
X6650714Y-15715714D01*
X6579286Y-15715714D01*
X6550714Y-15701428D01*
X6536428Y-15672857D01*
X6536428Y-15644286D01*
X6550714Y-15615714D01*
X6579286Y-15601428D01*
X6650714Y-15601428D01*
X6679286Y-15587143D01*
X6822143Y-15515714D02*
X6822143Y-15815714D01*
X6822143Y-15530000D02*
X6850714Y-15515714D01*
X6907857Y-15515714D01*
X6936428Y-15530000D01*
X6950714Y-15544286D01*
X6965000Y-15572857D01*
X6965000Y-15658571D01*
X6950714Y-15687143D01*
X6936428Y-15701428D01*
X6907857Y-15715714D01*
X6850714Y-15715714D01*
X6822143Y-15701428D01*
X7093571Y-15687143D02*
X7107857Y-15701428D01*
X7093571Y-15715714D01*
X7079286Y-15701428D01*
X7093571Y-15687143D01*
X7093571Y-15715714D01*
X7093571Y-15530000D02*
X7107857Y-15544286D01*
X7093571Y-15558571D01*
X7079286Y-15544286D01*
X7093571Y-15530000D01*
X7093571Y-15558571D01*
X4486000Y-16078000D02*
X4750000Y-16342000D01*
X4750000Y-16078000D02*
X4486000Y-16342000D01*
X5022143Y-16074286D02*
X5036429Y-16060000D01*
X5065000Y-16045714D01*
X5136429Y-16045714D01*
X5165000Y-16060000D01*
X5179286Y-16074286D01*
X5193571Y-16102857D01*
X5193571Y-16131428D01*
X5179286Y-16174286D01*
X5007857Y-16345714D01*
X5193571Y-16345714D01*
X5322143Y-16317143D02*
X5336429Y-16331428D01*
X5322143Y-16345714D01*
X5307857Y-16331428D01*
X5322143Y-16317143D01*
X5322143Y-16345714D01*
X5593571Y-16045714D02*
X5536429Y-16045714D01*
X5507857Y-16060000D01*
X5493571Y-16074286D01*
X5465000Y-16117143D01*
X5450714Y-16174286D01*
X5450714Y-16288571D01*
X5465000Y-16317143D01*
X5479286Y-16331428D01*
X5507857Y-16345714D01*
X5565000Y-16345714D01*
X5593571Y-16331428D01*
X5607857Y-16317143D01*
X5622143Y-16288571D01*
X5622143Y-16217143D01*
X5607857Y-16188571D01*
X5593571Y-16174286D01*
X5565000Y-16160000D01*
X5507857Y-16160000D01*
X5479286Y-16174286D01*
X5465000Y-16188571D01*
X5450714Y-16217143D01*
X5879286Y-16145714D02*
X5879286Y-16345714D01*
X5807857Y-16031428D02*
X5736428Y-16245714D01*
X5922143Y-16245714D01*
X6093571Y-16045714D02*
X6122143Y-16045714D01*
X6150714Y-16060000D01*
X6165000Y-16074286D01*
X6179286Y-16102857D01*
X6193571Y-16160000D01*
X6193571Y-16231428D01*
X6179286Y-16288571D01*
X6165000Y-16317143D01*
X6150714Y-16331428D01*
X6122143Y-16345714D01*
X6093571Y-16345714D01*
X6065000Y-16331428D01*
X6050714Y-16317143D01*
X6036428Y-16288571D01*
X6022143Y-16231428D01*
X6022143Y-16160000D01*
X6036428Y-16102857D01*
X6050714Y-16074286D01*
X6065000Y-16060000D01*
X6093571Y-16045714D01*
X6322143Y-16345714D02*
X6322143Y-16145714D01*
X6322143Y-16174286D02*
X6336428Y-16160000D01*
X6365000Y-16145714D01*
X6407857Y-16145714D01*
X6436428Y-16160000D01*
X6450714Y-16188571D01*
X6450714Y-16345714D01*
X6450714Y-16188571D02*
X6465000Y-16160000D01*
X6493571Y-16145714D01*
X6536428Y-16145714D01*
X6565000Y-16160000D01*
X6579286Y-16188571D01*
X6579286Y-16345714D01*
X6722143Y-16345714D02*
X6722143Y-16145714D01*
X6722143Y-16174286D02*
X6736428Y-16160000D01*
X6765000Y-16145714D01*
X6807857Y-16145714D01*
X6836428Y-16160000D01*
X6850714Y-16188571D01*
X6850714Y-16345714D01*
X6850714Y-16188571D02*
X6865000Y-16160000D01*
X6893571Y-16145714D01*
X6936428Y-16145714D01*
X6965000Y-16160000D01*
X6979286Y-16188571D01*
X6979286Y-16345714D01*
X7565000Y-16031428D02*
X7307857Y-16417143D01*
X7950714Y-16045714D02*
X7979286Y-16045714D01*
X8007857Y-16060000D01*
X8022143Y-16074286D01*
X8036428Y-16102857D01*
X8050714Y-16160000D01*
X8050714Y-16231428D01*
X8036428Y-16288571D01*
X8022143Y-16317143D01*
X8007857Y-16331428D01*
X7979286Y-16345714D01*
X7950714Y-16345714D01*
X7922143Y-16331428D01*
X7907857Y-16317143D01*
X7893571Y-16288571D01*
X7879286Y-16231428D01*
X7879286Y-16160000D01*
X7893571Y-16102857D01*
X7907857Y-16074286D01*
X7922143Y-16060000D01*
X7950714Y-16045714D01*
X8179286Y-16317143D02*
X8193571Y-16331428D01*
X8179286Y-16345714D01*
X8165000Y-16331428D01*
X8179286Y-16317143D01*
X8179286Y-16345714D01*
X8479286Y-16345714D02*
X8307857Y-16345714D01*
X8393571Y-16345714D02*
X8393571Y-16045714D01*
X8365000Y-16088571D01*
X8336428Y-16117143D01*
X8307857Y-16131428D01*
X8665000Y-16045714D02*
X8693571Y-16045714D01*
X8722143Y-16060000D01*
X8736429Y-16074286D01*
X8750714Y-16102857D01*
X8765000Y-16160000D01*
X8765000Y-16231428D01*
X8750714Y-16288571D01*
X8736429Y-16317143D01*
X8722143Y-16331428D01*
X8693571Y-16345714D01*
X8665000Y-16345714D01*
X8636429Y-16331428D01*
X8622143Y-16317143D01*
X8607857Y-16288571D01*
X8593571Y-16231428D01*
X8593571Y-16160000D01*
X8607857Y-16102857D01*
X8622143Y-16074286D01*
X8636429Y-16060000D01*
X8665000Y-16045714D01*
X8865000Y-16045714D02*
X9050714Y-16045714D01*
X8950714Y-16160000D01*
X8993571Y-16160000D01*
X9022143Y-16174286D01*
X9036429Y-16188571D01*
X9050714Y-16217143D01*
X9050714Y-16288571D01*
X9036429Y-16317143D01*
X9022143Y-16331428D01*
X8993571Y-16345714D01*
X8907857Y-16345714D01*
X8879286Y-16331428D01*
X8865000Y-16317143D01*
X9193571Y-16345714D02*
X9250714Y-16345714D01*
X9279286Y-16331428D01*
X9293571Y-16317143D01*
X9322143Y-16274286D01*
X9336429Y-16217143D01*
X9336429Y-16102857D01*
X9322143Y-16074286D01*
X9307857Y-16060000D01*
X9279286Y-16045714D01*
X9222143Y-16045714D01*
X9193571Y-16060000D01*
X9179286Y-16074286D01*
X9165000Y-16102857D01*
X9165000Y-16174286D01*
X9179286Y-16202857D01*
X9193571Y-16217143D01*
X9222143Y-16231428D01*
X9279286Y-16231428D01*
X9307857Y-16217143D01*
X9322143Y-16202857D01*
X9336429Y-16174286D01*
X9450714Y-16045714D02*
X9450714Y-16102857D01*
X9565000Y-16045714D02*
X9565000Y-16102857D01*
X10007857Y-16460000D02*
X9993571Y-16445714D01*
X9965000Y-16402857D01*
X9950714Y-16374286D01*
X9936429Y-16331428D01*
X9922143Y-16260000D01*
X9922143Y-16202857D01*
X9936429Y-16131428D01*
X9950714Y-16088571D01*
X9965000Y-16060000D01*
X9993571Y-16017143D01*
X10007857Y-16002857D01*
X10165000Y-16174286D02*
X10136429Y-16160000D01*
X10122143Y-16145714D01*
X10107857Y-16117143D01*
X10107857Y-16102857D01*
X10122143Y-16074286D01*
X10136429Y-16060000D01*
X10165000Y-16045714D01*
X10222143Y-16045714D01*
X10250714Y-16060000D01*
X10265000Y-16074286D01*
X10279286Y-16102857D01*
X10279286Y-16117143D01*
X10265000Y-16145714D01*
X10250714Y-16160000D01*
X10222143Y-16174286D01*
X10165000Y-16174286D01*
X10136429Y-16188571D01*
X10122143Y-16202857D01*
X10107857Y-16231428D01*
X10107857Y-16288571D01*
X10122143Y-16317143D01*
X10136429Y-16331428D01*
X10165000Y-16345714D01*
X10222143Y-16345714D01*
X10250714Y-16331428D01*
X10265000Y-16317143D01*
X10279286Y-16288571D01*
X10279286Y-16231428D01*
X10265000Y-16202857D01*
X10250714Y-16188571D01*
X10222143Y-16174286D01*
X10636429Y-16345714D02*
X10636429Y-16045714D01*
X10765000Y-16345714D02*
X10765000Y-16188571D01*
X10750714Y-16160000D01*
X10722143Y-16145714D01*
X10679286Y-16145714D01*
X10650714Y-16160000D01*
X10636429Y-16174286D01*
X10950714Y-16345714D02*
X10922143Y-16331428D01*
X10907857Y-16317143D01*
X10893571Y-16288571D01*
X10893571Y-16202857D01*
X10907857Y-16174286D01*
X10922143Y-16160000D01*
X10950714Y-16145714D01*
X10993571Y-16145714D01*
X11022143Y-16160000D01*
X11036429Y-16174286D01*
X11050714Y-16202857D01*
X11050714Y-16288571D01*
X11036429Y-16317143D01*
X11022143Y-16331428D01*
X10993571Y-16345714D01*
X10950714Y-16345714D01*
X11222143Y-16345714D02*
X11193571Y-16331428D01*
X11179286Y-16302857D01*
X11179286Y-16045714D01*
X11450714Y-16331428D02*
X11422143Y-16345714D01*
X11365000Y-16345714D01*
X11336428Y-16331428D01*
X11322143Y-16302857D01*
X11322143Y-16188571D01*
X11336428Y-16160000D01*
X11365000Y-16145714D01*
X11422143Y-16145714D01*
X11450714Y-16160000D01*
X11465000Y-16188571D01*
X11465000Y-16217143D01*
X11322143Y-16245714D01*
X11579286Y-16331428D02*
X11607857Y-16345714D01*
X11665000Y-16345714D01*
X11693571Y-16331428D01*
X11707857Y-16302857D01*
X11707857Y-16288571D01*
X11693571Y-16260000D01*
X11665000Y-16245714D01*
X11622143Y-16245714D01*
X11593571Y-16231428D01*
X11579286Y-16202857D01*
X11579286Y-16188571D01*
X11593571Y-16160000D01*
X11622143Y-16145714D01*
X11665000Y-16145714D01*
X11693571Y-16160000D01*
X11807857Y-16460000D02*
X11822143Y-16445714D01*
X11850714Y-16402857D01*
X11865000Y-16374286D01*
X11879286Y-16331428D01*
X11893571Y-16260000D01*
X11893571Y-16202857D01*
X11879286Y-16131428D01*
X11865000Y-16088571D01*
X11850714Y-16060000D01*
X11822143Y-16017143D01*
X11807857Y-16002857D01*
X12350714Y-16460000D02*
X12336428Y-16445714D01*
X12307857Y-16402857D01*
X12293571Y-16374286D01*
X12279286Y-16331428D01*
X12265000Y-16260000D01*
X12265000Y-16202857D01*
X12279286Y-16131428D01*
X12293571Y-16088571D01*
X12307857Y-16060000D01*
X12336428Y-16017143D01*
X12350714Y-16002857D01*
X12465000Y-16145714D02*
X12465000Y-16345714D01*
X12465000Y-16174286D02*
X12479286Y-16160000D01*
X12507857Y-16145714D01*
X12550714Y-16145714D01*
X12579286Y-16160000D01*
X12593571Y-16188571D01*
X12593571Y-16345714D01*
X12779286Y-16345714D02*
X12750714Y-16331428D01*
X12736428Y-16317143D01*
X12722143Y-16288571D01*
X12722143Y-16202857D01*
X12736428Y-16174286D01*
X12750714Y-16160000D01*
X12779286Y-16145714D01*
X12822143Y-16145714D01*
X12850714Y-16160000D01*
X12865000Y-16174286D01*
X12879286Y-16202857D01*
X12879286Y-16288571D01*
X12865000Y-16317143D01*
X12850714Y-16331428D01*
X12822143Y-16345714D01*
X12779286Y-16345714D01*
X12965000Y-16145714D02*
X13079286Y-16145714D01*
X13007857Y-16045714D02*
X13007857Y-16302857D01*
X13022143Y-16331428D01*
X13050714Y-16345714D01*
X13079286Y-16345714D01*
X13407857Y-16145714D02*
X13407857Y-16445714D01*
X13407857Y-16160000D02*
X13436428Y-16145714D01*
X13493571Y-16145714D01*
X13522143Y-16160000D01*
X13536428Y-16174286D01*
X13550714Y-16202857D01*
X13550714Y-16288571D01*
X13536428Y-16317143D01*
X13522143Y-16331428D01*
X13493571Y-16345714D01*
X13436428Y-16345714D01*
X13407857Y-16331428D01*
X13722143Y-16345714D02*
X13693571Y-16331428D01*
X13679286Y-16302857D01*
X13679286Y-16045714D01*
X13965000Y-16345714D02*
X13965000Y-16188571D01*
X13950714Y-16160000D01*
X13922143Y-16145714D01*
X13865000Y-16145714D01*
X13836428Y-16160000D01*
X13965000Y-16331428D02*
X13936428Y-16345714D01*
X13865000Y-16345714D01*
X13836428Y-16331428D01*
X13822143Y-16302857D01*
X13822143Y-16274286D01*
X13836428Y-16245714D01*
X13865000Y-16231428D01*
X13936428Y-16231428D01*
X13965000Y-16217143D01*
X14065000Y-16145714D02*
X14179286Y-16145714D01*
X14107857Y-16045714D02*
X14107857Y-16302857D01*
X14122143Y-16331428D01*
X14150714Y-16345714D01*
X14179286Y-16345714D01*
X14393571Y-16331428D02*
X14365000Y-16345714D01*
X14307857Y-16345714D01*
X14279286Y-16331428D01*
X14265000Y-16302857D01*
X14265000Y-16188571D01*
X14279286Y-16160000D01*
X14307857Y-16145714D01*
X14365000Y-16145714D01*
X14393571Y-16160000D01*
X14407857Y-16188571D01*
X14407857Y-16217143D01*
X14265000Y-16245714D01*
X14665000Y-16345714D02*
X14665000Y-16045714D01*
X14665000Y-16331428D02*
X14636428Y-16345714D01*
X14579286Y-16345714D01*
X14550714Y-16331428D01*
X14536428Y-16317143D01*
X14522143Y-16288571D01*
X14522143Y-16202857D01*
X14536428Y-16174286D01*
X14550714Y-16160000D01*
X14579286Y-16145714D01*
X14636428Y-16145714D01*
X14665000Y-16160000D01*
X14779286Y-16460000D02*
X14793571Y-16445714D01*
X14822143Y-16402857D01*
X14836428Y-16374286D01*
X14850714Y-16331428D01*
X14865000Y-16260000D01*
X14865000Y-16202857D01*
X14850714Y-16131428D01*
X14836428Y-16088571D01*
X14822143Y-16060000D01*
X14793571Y-16017143D01*
X14779286Y-16002857D01*
X4750000Y-16606000D02*
G75*
G03*
X4750000Y-16606000I-160000J0D01*
G01*
X5007857Y-16441714D02*
X5193571Y-16441714D01*
X5093571Y-16556000D01*
X5136429Y-16556000D01*
X5165000Y-16570286D01*
X5179286Y-16584571D01*
X5193571Y-16613143D01*
X5193571Y-16684571D01*
X5179286Y-16713143D01*
X5165000Y-16727428D01*
X5136429Y-16741714D01*
X5050714Y-16741714D01*
X5022143Y-16727428D01*
X5007857Y-16713143D01*
X5322143Y-16713143D02*
X5336429Y-16727428D01*
X5322143Y-16741714D01*
X5307857Y-16727428D01*
X5322143Y-16713143D01*
X5322143Y-16741714D01*
X5450714Y-16470286D02*
X5465000Y-16456000D01*
X5493571Y-16441714D01*
X5565000Y-16441714D01*
X5593571Y-16456000D01*
X5607857Y-16470286D01*
X5622143Y-16498857D01*
X5622143Y-16527428D01*
X5607857Y-16570286D01*
X5436429Y-16741714D01*
X5622143Y-16741714D01*
X5807857Y-16441714D02*
X5836428Y-16441714D01*
X5865000Y-16456000D01*
X5879286Y-16470286D01*
X5893571Y-16498857D01*
X5907857Y-16556000D01*
X5907857Y-16627428D01*
X5893571Y-16684571D01*
X5879286Y-16713143D01*
X5865000Y-16727428D01*
X5836428Y-16741714D01*
X5807857Y-16741714D01*
X5779286Y-16727428D01*
X5765000Y-16713143D01*
X5750714Y-16684571D01*
X5736428Y-16627428D01*
X5736428Y-16556000D01*
X5750714Y-16498857D01*
X5765000Y-16470286D01*
X5779286Y-16456000D01*
X5807857Y-16441714D01*
X6093571Y-16441714D02*
X6122143Y-16441714D01*
X6150714Y-16456000D01*
X6165000Y-16470286D01*
X6179286Y-16498857D01*
X6193571Y-16556000D01*
X6193571Y-16627428D01*
X6179286Y-16684571D01*
X6165000Y-16713143D01*
X6150714Y-16727428D01*
X6122143Y-16741714D01*
X6093571Y-16741714D01*
X6065000Y-16727428D01*
X6050714Y-16713143D01*
X6036428Y-16684571D01*
X6022143Y-16627428D01*
X6022143Y-16556000D01*
X6036428Y-16498857D01*
X6050714Y-16470286D01*
X6065000Y-16456000D01*
X6093571Y-16441714D01*
X6322143Y-16741714D02*
X6322143Y-16541714D01*
X6322143Y-16570286D02*
X6336428Y-16556000D01*
X6365000Y-16541714D01*
X6407857Y-16541714D01*
X6436428Y-16556000D01*
X6450714Y-16584571D01*
X6450714Y-16741714D01*
X6450714Y-16584571D02*
X6465000Y-16556000D01*
X6493571Y-16541714D01*
X6536428Y-16541714D01*
X6565000Y-16556000D01*
X6579286Y-16584571D01*
X6579286Y-16741714D01*
X6722143Y-16741714D02*
X6722143Y-16541714D01*
X6722143Y-16570286D02*
X6736428Y-16556000D01*
X6765000Y-16541714D01*
X6807857Y-16541714D01*
X6836428Y-16556000D01*
X6850714Y-16584571D01*
X6850714Y-16741714D01*
X6850714Y-16584571D02*
X6865000Y-16556000D01*
X6893571Y-16541714D01*
X6936428Y-16541714D01*
X6965000Y-16556000D01*
X6979286Y-16584571D01*
X6979286Y-16741714D01*
X7565000Y-16427428D02*
X7307857Y-16813143D01*
X7950714Y-16441714D02*
X7979286Y-16441714D01*
X8007857Y-16456000D01*
X8022143Y-16470286D01*
X8036428Y-16498857D01*
X8050714Y-16556000D01*
X8050714Y-16627428D01*
X8036428Y-16684571D01*
X8022143Y-16713143D01*
X8007857Y-16727428D01*
X7979286Y-16741714D01*
X7950714Y-16741714D01*
X7922143Y-16727428D01*
X7907857Y-16713143D01*
X7893571Y-16684571D01*
X7879286Y-16627428D01*
X7879286Y-16556000D01*
X7893571Y-16498857D01*
X7907857Y-16470286D01*
X7922143Y-16456000D01*
X7950714Y-16441714D01*
X8179286Y-16713143D02*
X8193571Y-16727428D01*
X8179286Y-16741714D01*
X8165000Y-16727428D01*
X8179286Y-16713143D01*
X8179286Y-16741714D01*
X8479286Y-16741714D02*
X8307857Y-16741714D01*
X8393571Y-16741714D02*
X8393571Y-16441714D01*
X8365000Y-16484571D01*
X8336428Y-16513143D01*
X8307857Y-16527428D01*
X8593571Y-16470286D02*
X8607857Y-16456000D01*
X8636429Y-16441714D01*
X8707857Y-16441714D01*
X8736429Y-16456000D01*
X8750714Y-16470286D01*
X8765000Y-16498857D01*
X8765000Y-16527428D01*
X8750714Y-16570286D01*
X8579286Y-16741714D01*
X8765000Y-16741714D01*
X9022143Y-16441714D02*
X8965000Y-16441714D01*
X8936429Y-16456000D01*
X8922143Y-16470286D01*
X8893571Y-16513143D01*
X8879286Y-16570286D01*
X8879286Y-16684571D01*
X8893571Y-16713143D01*
X8907857Y-16727428D01*
X8936429Y-16741714D01*
X8993571Y-16741714D01*
X9022143Y-16727428D01*
X9036429Y-16713143D01*
X9050714Y-16684571D01*
X9050714Y-16613143D01*
X9036429Y-16584571D01*
X9022143Y-16570286D01*
X8993571Y-16556000D01*
X8936429Y-16556000D01*
X8907857Y-16570286D01*
X8893571Y-16584571D01*
X8879286Y-16613143D01*
X9236429Y-16441714D02*
X9265000Y-16441714D01*
X9293571Y-16456000D01*
X9307857Y-16470286D01*
X9322143Y-16498857D01*
X9336429Y-16556000D01*
X9336429Y-16627428D01*
X9322143Y-16684571D01*
X9307857Y-16713143D01*
X9293571Y-16727428D01*
X9265000Y-16741714D01*
X9236429Y-16741714D01*
X9207857Y-16727428D01*
X9193571Y-16713143D01*
X9179286Y-16684571D01*
X9165000Y-16627428D01*
X9165000Y-16556000D01*
X9179286Y-16498857D01*
X9193571Y-16470286D01*
X9207857Y-16456000D01*
X9236429Y-16441714D01*
X9450714Y-16441714D02*
X9450714Y-16498857D01*
X9565000Y-16441714D02*
X9565000Y-16498857D01*
X10007857Y-16856000D02*
X9993571Y-16841714D01*
X9965000Y-16798857D01*
X9950714Y-16770286D01*
X9936429Y-16727428D01*
X9922143Y-16656000D01*
X9922143Y-16598857D01*
X9936429Y-16527428D01*
X9950714Y-16484571D01*
X9965000Y-16456000D01*
X9993571Y-16413143D01*
X10007857Y-16398857D01*
X10250714Y-16541714D02*
X10250714Y-16741714D01*
X10179286Y-16427428D02*
X10107857Y-16641714D01*
X10293571Y-16641714D01*
X10636429Y-16741714D02*
X10636429Y-16441714D01*
X10765000Y-16741714D02*
X10765000Y-16584571D01*
X10750714Y-16556000D01*
X10722143Y-16541714D01*
X10679286Y-16541714D01*
X10650714Y-16556000D01*
X10636429Y-16570286D01*
X10950714Y-16741714D02*
X10922143Y-16727428D01*
X10907857Y-16713143D01*
X10893571Y-16684571D01*
X10893571Y-16598857D01*
X10907857Y-16570286D01*
X10922143Y-16556000D01*
X10950714Y-16541714D01*
X10993571Y-16541714D01*
X11022143Y-16556000D01*
X11036429Y-16570286D01*
X11050714Y-16598857D01*
X11050714Y-16684571D01*
X11036429Y-16713143D01*
X11022143Y-16727428D01*
X10993571Y-16741714D01*
X10950714Y-16741714D01*
X11222143Y-16741714D02*
X11193571Y-16727428D01*
X11179286Y-16698857D01*
X11179286Y-16441714D01*
X11450714Y-16727428D02*
X11422143Y-16741714D01*
X11365000Y-16741714D01*
X11336428Y-16727428D01*
X11322143Y-16698857D01*
X11322143Y-16584571D01*
X11336428Y-16556000D01*
X11365000Y-16541714D01*
X11422143Y-16541714D01*
X11450714Y-16556000D01*
X11465000Y-16584571D01*
X11465000Y-16613143D01*
X11322143Y-16641714D01*
X11579286Y-16727428D02*
X11607857Y-16741714D01*
X11665000Y-16741714D01*
X11693571Y-16727428D01*
X11707857Y-16698857D01*
X11707857Y-16684571D01*
X11693571Y-16656000D01*
X11665000Y-16641714D01*
X11622143Y-16641714D01*
X11593571Y-16627428D01*
X11579286Y-16598857D01*
X11579286Y-16584571D01*
X11593571Y-16556000D01*
X11622143Y-16541714D01*
X11665000Y-16541714D01*
X11693571Y-16556000D01*
X11807857Y-16856000D02*
X11822143Y-16841714D01*
X11850714Y-16798857D01*
X11865000Y-16770286D01*
X11879286Y-16727428D01*
X11893571Y-16656000D01*
X11893571Y-16598857D01*
X11879286Y-16527428D01*
X11865000Y-16484571D01*
X11850714Y-16456000D01*
X11822143Y-16413143D01*
X11807857Y-16398857D01*
X12350714Y-16856000D02*
X12336428Y-16841714D01*
X12307857Y-16798857D01*
X12293571Y-16770286D01*
X12279286Y-16727428D01*
X12265000Y-16656000D01*
X12265000Y-16598857D01*
X12279286Y-16527428D01*
X12293571Y-16484571D01*
X12307857Y-16456000D01*
X12336428Y-16413143D01*
X12350714Y-16398857D01*
X12465000Y-16541714D02*
X12465000Y-16741714D01*
X12465000Y-16570286D02*
X12479286Y-16556000D01*
X12507857Y-16541714D01*
X12550714Y-16541714D01*
X12579286Y-16556000D01*
X12593571Y-16584571D01*
X12593571Y-16741714D01*
X12779286Y-16741714D02*
X12750714Y-16727428D01*
X12736428Y-16713143D01*
X12722143Y-16684571D01*
X12722143Y-16598857D01*
X12736428Y-16570286D01*
X12750714Y-16556000D01*
X12779286Y-16541714D01*
X12822143Y-16541714D01*
X12850714Y-16556000D01*
X12865000Y-16570286D01*
X12879286Y-16598857D01*
X12879286Y-16684571D01*
X12865000Y-16713143D01*
X12850714Y-16727428D01*
X12822143Y-16741714D01*
X12779286Y-16741714D01*
X12965000Y-16541714D02*
X13079286Y-16541714D01*
X13007857Y-16441714D02*
X13007857Y-16698857D01*
X13022143Y-16727428D01*
X13050714Y-16741714D01*
X13079286Y-16741714D01*
X13407857Y-16541714D02*
X13407857Y-16841714D01*
X13407857Y-16556000D02*
X13436428Y-16541714D01*
X13493571Y-16541714D01*
X13522143Y-16556000D01*
X13536428Y-16570286D01*
X13550714Y-16598857D01*
X13550714Y-16684571D01*
X13536428Y-16713143D01*
X13522143Y-16727428D01*
X13493571Y-16741714D01*
X13436428Y-16741714D01*
X13407857Y-16727428D01*
X13722143Y-16741714D02*
X13693571Y-16727428D01*
X13679286Y-16698857D01*
X13679286Y-16441714D01*
X13965000Y-16741714D02*
X13965000Y-16584571D01*
X13950714Y-16556000D01*
X13922143Y-16541714D01*
X13865000Y-16541714D01*
X13836428Y-16556000D01*
X13965000Y-16727428D02*
X13936428Y-16741714D01*
X13865000Y-16741714D01*
X13836428Y-16727428D01*
X13822143Y-16698857D01*
X13822143Y-16670286D01*
X13836428Y-16641714D01*
X13865000Y-16627428D01*
X13936428Y-16627428D01*
X13965000Y-16613143D01*
X14065000Y-16541714D02*
X14179286Y-16541714D01*
X14107857Y-16441714D02*
X14107857Y-16698857D01*
X14122143Y-16727428D01*
X14150714Y-16741714D01*
X14179286Y-16741714D01*
X14393571Y-16727428D02*
X14365000Y-16741714D01*
X14307857Y-16741714D01*
X14279286Y-16727428D01*
X14265000Y-16698857D01*
X14265000Y-16584571D01*
X14279286Y-16556000D01*
X14307857Y-16541714D01*
X14365000Y-16541714D01*
X14393571Y-16556000D01*
X14407857Y-16584571D01*
X14407857Y-16613143D01*
X14265000Y-16641714D01*
X14665000Y-16741714D02*
X14665000Y-16441714D01*
X14665000Y-16727428D02*
X14636428Y-16741714D01*
X14579286Y-16741714D01*
X14550714Y-16727428D01*
X14536428Y-16713143D01*
X14522143Y-16684571D01*
X14522143Y-16598857D01*
X14536428Y-16570286D01*
X14550714Y-16556000D01*
X14579286Y-16541714D01*
X14636428Y-16541714D01*
X14665000Y-16556000D01*
X14779286Y-16856000D02*
X14793571Y-16841714D01*
X14822143Y-16798857D01*
X14836428Y-16770286D01*
X14850714Y-16727428D01*
X14865000Y-16656000D01*
X14865000Y-16598857D01*
X14850714Y-16527428D01*
X14836428Y-16484571D01*
X14822143Y-16456000D01*
X14793571Y-16413143D01*
X14779286Y-16398857D01*
X4550000Y-16856000D02*
X4550000Y-17256000D01*
X4350000Y-17056000D02*
X4750000Y-17056000D01*
X5165000Y-16991714D02*
X5165000Y-17191714D01*
X5093571Y-16877429D02*
X5022143Y-17091714D01*
X5207857Y-17091714D01*
X5322143Y-17163143D02*
X5336429Y-17177429D01*
X5322143Y-17191714D01*
X5307857Y-17177429D01*
X5322143Y-17163143D01*
X5322143Y-17191714D01*
X5522143Y-16891714D02*
X5550714Y-16891714D01*
X5579286Y-16906000D01*
X5593571Y-16920286D01*
X5607857Y-16948857D01*
X5622143Y-17006000D01*
X5622143Y-17077429D01*
X5607857Y-17134571D01*
X5593571Y-17163143D01*
X5579286Y-17177429D01*
X5550714Y-17191714D01*
X5522143Y-17191714D01*
X5493571Y-17177429D01*
X5479286Y-17163143D01*
X5465000Y-17134571D01*
X5450714Y-17077429D01*
X5450714Y-17006000D01*
X5465000Y-16948857D01*
X5479286Y-16920286D01*
X5493571Y-16906000D01*
X5522143Y-16891714D01*
X5807857Y-16891714D02*
X5836428Y-16891714D01*
X5865000Y-16906000D01*
X5879286Y-16920286D01*
X5893571Y-16948857D01*
X5907857Y-17006000D01*
X5907857Y-17077429D01*
X5893571Y-17134571D01*
X5879286Y-17163143D01*
X5865000Y-17177429D01*
X5836428Y-17191714D01*
X5807857Y-17191714D01*
X5779286Y-17177429D01*
X5765000Y-17163143D01*
X5750714Y-17134571D01*
X5736428Y-17077429D01*
X5736428Y-17006000D01*
X5750714Y-16948857D01*
X5765000Y-16920286D01*
X5779286Y-16906000D01*
X5807857Y-16891714D01*
X6093571Y-16891714D02*
X6122143Y-16891714D01*
X6150714Y-16906000D01*
X6165000Y-16920286D01*
X6179286Y-16948857D01*
X6193571Y-17006000D01*
X6193571Y-17077429D01*
X6179286Y-17134571D01*
X6165000Y-17163143D01*
X6150714Y-17177429D01*
X6122143Y-17191714D01*
X6093571Y-17191714D01*
X6065000Y-17177429D01*
X6050714Y-17163143D01*
X6036428Y-17134571D01*
X6022143Y-17077429D01*
X6022143Y-17006000D01*
X6036428Y-16948857D01*
X6050714Y-16920286D01*
X6065000Y-16906000D01*
X6093571Y-16891714D01*
X6322143Y-17191714D02*
X6322143Y-16991714D01*
X6322143Y-17020286D02*
X6336428Y-17006000D01*
X6365000Y-16991714D01*
X6407857Y-16991714D01*
X6436428Y-17006000D01*
X6450714Y-17034571D01*
X6450714Y-17191714D01*
X6450714Y-17034571D02*
X6465000Y-17006000D01*
X6493571Y-16991714D01*
X6536428Y-16991714D01*
X6565000Y-17006000D01*
X6579286Y-17034571D01*
X6579286Y-17191714D01*
X6722143Y-17191714D02*
X6722143Y-16991714D01*
X6722143Y-17020286D02*
X6736428Y-17006000D01*
X6765000Y-16991714D01*
X6807857Y-16991714D01*
X6836428Y-17006000D01*
X6850714Y-17034571D01*
X6850714Y-17191714D01*
X6850714Y-17034571D02*
X6865000Y-17006000D01*
X6893571Y-16991714D01*
X6936428Y-16991714D01*
X6965000Y-17006000D01*
X6979286Y-17034571D01*
X6979286Y-17191714D01*
X7565000Y-16877429D02*
X7307857Y-17263143D01*
X7950714Y-16891714D02*
X7979286Y-16891714D01*
X8007857Y-16906000D01*
X8022143Y-16920286D01*
X8036428Y-16948857D01*
X8050714Y-17006000D01*
X8050714Y-17077429D01*
X8036428Y-17134571D01*
X8022143Y-17163143D01*
X8007857Y-17177429D01*
X7979286Y-17191714D01*
X7950714Y-17191714D01*
X7922143Y-17177429D01*
X7907857Y-17163143D01*
X7893571Y-17134571D01*
X7879286Y-17077429D01*
X7879286Y-17006000D01*
X7893571Y-16948857D01*
X7907857Y-16920286D01*
X7922143Y-16906000D01*
X7950714Y-16891714D01*
X8179286Y-17163143D02*
X8193571Y-17177429D01*
X8179286Y-17191714D01*
X8165000Y-17177429D01*
X8179286Y-17163143D01*
X8179286Y-17191714D01*
X8479286Y-17191714D02*
X8307857Y-17191714D01*
X8393571Y-17191714D02*
X8393571Y-16891714D01*
X8365000Y-16934571D01*
X8336428Y-16963143D01*
X8307857Y-16977429D01*
X8750714Y-16891714D02*
X8607857Y-16891714D01*
X8593571Y-17034571D01*
X8607857Y-17020286D01*
X8636429Y-17006000D01*
X8707857Y-17006000D01*
X8736429Y-17020286D01*
X8750714Y-17034571D01*
X8765000Y-17063143D01*
X8765000Y-17134571D01*
X8750714Y-17163143D01*
X8736429Y-17177429D01*
X8707857Y-17191714D01*
X8636429Y-17191714D01*
X8607857Y-17177429D01*
X8593571Y-17163143D01*
X8865000Y-16891714D02*
X9065000Y-16891714D01*
X8936429Y-17191714D01*
X9322143Y-16891714D02*
X9179286Y-16891714D01*
X9165000Y-17034571D01*
X9179286Y-17020286D01*
X9207857Y-17006000D01*
X9279286Y-17006000D01*
X9307857Y-17020286D01*
X9322143Y-17034571D01*
X9336429Y-17063143D01*
X9336429Y-17134571D01*
X9322143Y-17163143D01*
X9307857Y-17177429D01*
X9279286Y-17191714D01*
X9207857Y-17191714D01*
X9179286Y-17177429D01*
X9165000Y-17163143D01*
X9450714Y-16891714D02*
X9450714Y-16948857D01*
X9565000Y-16891714D02*
X9565000Y-16948857D01*
X10007857Y-17306000D02*
X9993571Y-17291714D01*
X9965000Y-17248857D01*
X9950714Y-17220286D01*
X9936429Y-17177429D01*
X9922143Y-17106000D01*
X9922143Y-17048857D01*
X9936429Y-16977429D01*
X9950714Y-16934571D01*
X9965000Y-16906000D01*
X9993571Y-16863143D01*
X10007857Y-16848857D01*
X10279286Y-17191714D02*
X10107857Y-17191714D01*
X10193571Y-17191714D02*
X10193571Y-16891714D01*
X10165000Y-16934571D01*
X10136429Y-16963143D01*
X10107857Y-16977429D01*
X10636429Y-17191714D02*
X10636429Y-16891714D01*
X10765000Y-17191714D02*
X10765000Y-17034571D01*
X10750714Y-17006000D01*
X10722143Y-16991714D01*
X10679286Y-16991714D01*
X10650714Y-17006000D01*
X10636429Y-17020286D01*
X10950714Y-17191714D02*
X10922143Y-17177429D01*
X10907857Y-17163143D01*
X10893571Y-17134571D01*
X10893571Y-17048857D01*
X10907857Y-17020286D01*
X10922143Y-17006000D01*
X10950714Y-16991714D01*
X10993571Y-16991714D01*
X11022143Y-17006000D01*
X11036429Y-17020286D01*
X11050714Y-17048857D01*
X11050714Y-17134571D01*
X11036429Y-17163143D01*
X11022143Y-17177429D01*
X10993571Y-17191714D01*
X10950714Y-17191714D01*
X11222143Y-17191714D02*
X11193571Y-17177429D01*
X11179286Y-17148857D01*
X11179286Y-16891714D01*
X11450714Y-17177429D02*
X11422143Y-17191714D01*
X11365000Y-17191714D01*
X11336428Y-17177429D01*
X11322143Y-17148857D01*
X11322143Y-17034571D01*
X11336428Y-17006000D01*
X11365000Y-16991714D01*
X11422143Y-16991714D01*
X11450714Y-17006000D01*
X11465000Y-17034571D01*
X11465000Y-17063143D01*
X11322143Y-17091714D01*
X11565000Y-17306000D02*
X11579286Y-17291714D01*
X11607857Y-17248857D01*
X11622143Y-17220286D01*
X11636428Y-17177429D01*
X11650714Y-17106000D01*
X11650714Y-17048857D01*
X11636428Y-16977429D01*
X11622143Y-16934571D01*
X11607857Y-16906000D01*
X11579286Y-16863143D01*
X11565000Y-16848857D01*
X12107857Y-17306000D02*
X12093571Y-17291714D01*
X12065000Y-17248857D01*
X12050714Y-17220286D01*
X12036428Y-17177429D01*
X12022143Y-17106000D01*
X12022143Y-17048857D01*
X12036428Y-16977429D01*
X12050714Y-16934571D01*
X12065000Y-16906000D01*
X12093571Y-16863143D01*
X12107857Y-16848857D01*
X12222143Y-16991714D02*
X12222143Y-17191714D01*
X12222143Y-17020286D02*
X12236428Y-17006000D01*
X12265000Y-16991714D01*
X12307857Y-16991714D01*
X12336428Y-17006000D01*
X12350714Y-17034571D01*
X12350714Y-17191714D01*
X12536428Y-17191714D02*
X12507857Y-17177429D01*
X12493571Y-17163143D01*
X12479286Y-17134571D01*
X12479286Y-17048857D01*
X12493571Y-17020286D01*
X12507857Y-17006000D01*
X12536428Y-16991714D01*
X12579286Y-16991714D01*
X12607857Y-17006000D01*
X12622143Y-17020286D01*
X12636428Y-17048857D01*
X12636428Y-17134571D01*
X12622143Y-17163143D01*
X12607857Y-17177429D01*
X12579286Y-17191714D01*
X12536428Y-17191714D01*
X12722143Y-16991714D02*
X12836428Y-16991714D01*
X12765000Y-16891714D02*
X12765000Y-17148857D01*
X12779286Y-17177429D01*
X12807857Y-17191714D01*
X12836428Y-17191714D01*
X13165000Y-16991714D02*
X13165000Y-17291714D01*
X13165000Y-17006000D02*
X13193571Y-16991714D01*
X13250714Y-16991714D01*
X13279286Y-17006000D01*
X13293571Y-17020286D01*
X13307857Y-17048857D01*
X13307857Y-17134571D01*
X13293571Y-17163143D01*
X13279286Y-17177429D01*
X13250714Y-17191714D01*
X13193571Y-17191714D01*
X13165000Y-17177429D01*
X13479286Y-17191714D02*
X13450714Y-17177429D01*
X13436428Y-17148857D01*
X13436428Y-16891714D01*
X13722143Y-17191714D02*
X13722143Y-17034571D01*
X13707857Y-17006000D01*
X13679286Y-16991714D01*
X13622143Y-16991714D01*
X13593571Y-17006000D01*
X13722143Y-17177429D02*
X13693571Y-17191714D01*
X13622143Y-17191714D01*
X13593571Y-17177429D01*
X13579286Y-17148857D01*
X13579286Y-17120286D01*
X13593571Y-17091714D01*
X13622143Y-17077429D01*
X13693571Y-17077429D01*
X13722143Y-17063143D01*
X13822143Y-16991714D02*
X13936428Y-16991714D01*
X13865000Y-16891714D02*
X13865000Y-17148857D01*
X13879286Y-17177429D01*
X13907857Y-17191714D01*
X13936428Y-17191714D01*
X14150714Y-17177429D02*
X14122143Y-17191714D01*
X14065000Y-17191714D01*
X14036428Y-17177429D01*
X14022143Y-17148857D01*
X14022143Y-17034571D01*
X14036428Y-17006000D01*
X14065000Y-16991714D01*
X14122143Y-16991714D01*
X14150714Y-17006000D01*
X14165000Y-17034571D01*
X14165000Y-17063143D01*
X14022143Y-17091714D01*
X14422143Y-17191714D02*
X14422143Y-16891714D01*
X14422143Y-17177429D02*
X14393571Y-17191714D01*
X14336428Y-17191714D01*
X14307857Y-17177429D01*
X14293571Y-17163143D01*
X14279286Y-17134571D01*
X14279286Y-17048857D01*
X14293571Y-17020286D01*
X14307857Y-17006000D01*
X14336428Y-16991714D01*
X14393571Y-16991714D01*
X14422143Y-17006000D01*
X14536428Y-17306000D02*
X14550714Y-17291714D01*
X14579286Y-17248857D01*
X14593571Y-17220286D01*
X14607857Y-17177429D01*
X14622143Y-17106000D01*
X14622143Y-17048857D01*
X14607857Y-16977429D01*
X14593571Y-16934571D01*
X14579286Y-16906000D01*
X14550714Y-16863143D01*
X14536428Y-16848857D01*
M02*
