%TF.GenerationSoftware,KiCad,Pcbnew,5.1.10-88a1d61d58~88~ubuntu16.04.1*%
%TF.CreationDate,2021-10-02T00:42:02+02:00*%
%TF.ProjectId,AE01.12.42.100,41453031-2e31-4322-9e34-322e3130302e,1*%
%TF.SameCoordinates,Original*%
%TF.FileFunction,Other,User*%
%FSLAX46Y46*%
G04 Gerber Fmt 4.6, Leading zero omitted, Abs format (unit mm)*
G04 Created by KiCad (PCBNEW 5.1.10-88a1d61d58~88~ubuntu16.04.1) date 2021-10-02 00:42:02*
%MOMM*%
%LPD*%
G01*
G04 APERTURE LIST*
%ADD10C,0.100000*%
%ADD11C,0.150000*%
%ADD12C,0.300000*%
%ADD13C,0.400000*%
%TA.AperFunction,Profile*%
%ADD14C,0.050000*%
%TD*%
G04 APERTURE END LIST*
D10*
D11*
X177002200Y-166007200D02*
X177002200Y-198007200D01*
X285002200Y-198007200D01*
X285002200Y-166007200D01*
X177002200Y-166007200D01*
D10*
D11*
X10000000Y-10000000D02*
X10000000Y-200007200D01*
X287002200Y-200007200D01*
X287002200Y-10000000D01*
X10000000Y-10000000D01*
D10*
D11*
X12000000Y-12000000D02*
X12000000Y-198007200D01*
X285002200Y-198007200D01*
X285002200Y-12000000D01*
X12000000Y-12000000D01*
D10*
D11*
X60000000Y-12000000D02*
X60000000Y-10000000D01*
D10*
D11*
X110000000Y-12000000D02*
X110000000Y-10000000D01*
D10*
D11*
X160000000Y-12000000D02*
X160000000Y-10000000D01*
D10*
D11*
X210000000Y-12000000D02*
X210000000Y-10000000D01*
D10*
D11*
X260000000Y-12000000D02*
X260000000Y-10000000D01*
D10*
D11*
X36065476Y-11588095D02*
X35322619Y-11588095D01*
X35694047Y-11588095D02*
X35694047Y-10288095D01*
X35570238Y-10473809D01*
X35446428Y-10597619D01*
X35322619Y-10659523D01*
D10*
D11*
X85322619Y-10411904D02*
X85384523Y-10350000D01*
X85508333Y-10288095D01*
X85817857Y-10288095D01*
X85941666Y-10350000D01*
X86003571Y-10411904D01*
X86065476Y-10535714D01*
X86065476Y-10659523D01*
X86003571Y-10845238D01*
X85260714Y-11588095D01*
X86065476Y-11588095D01*
D10*
D11*
X135260714Y-10288095D02*
X136065476Y-10288095D01*
X135632142Y-10783333D01*
X135817857Y-10783333D01*
X135941666Y-10845238D01*
X136003571Y-10907142D01*
X136065476Y-11030952D01*
X136065476Y-11340476D01*
X136003571Y-11464285D01*
X135941666Y-11526190D01*
X135817857Y-11588095D01*
X135446428Y-11588095D01*
X135322619Y-11526190D01*
X135260714Y-11464285D01*
D10*
D11*
X185941666Y-10721428D02*
X185941666Y-11588095D01*
X185632142Y-10226190D02*
X185322619Y-11154761D01*
X186127380Y-11154761D01*
D10*
D11*
X236003571Y-10288095D02*
X235384523Y-10288095D01*
X235322619Y-10907142D01*
X235384523Y-10845238D01*
X235508333Y-10783333D01*
X235817857Y-10783333D01*
X235941666Y-10845238D01*
X236003571Y-10907142D01*
X236065476Y-11030952D01*
X236065476Y-11340476D01*
X236003571Y-11464285D01*
X235941666Y-11526190D01*
X235817857Y-11588095D01*
X235508333Y-11588095D01*
X235384523Y-11526190D01*
X235322619Y-11464285D01*
D10*
D11*
X285941666Y-10288095D02*
X285694047Y-10288095D01*
X285570238Y-10350000D01*
X285508333Y-10411904D01*
X285384523Y-10597619D01*
X285322619Y-10845238D01*
X285322619Y-11340476D01*
X285384523Y-11464285D01*
X285446428Y-11526190D01*
X285570238Y-11588095D01*
X285817857Y-11588095D01*
X285941666Y-11526190D01*
X286003571Y-11464285D01*
X286065476Y-11340476D01*
X286065476Y-11030952D01*
X286003571Y-10907142D01*
X285941666Y-10845238D01*
X285817857Y-10783333D01*
X285570238Y-10783333D01*
X285446428Y-10845238D01*
X285384523Y-10907142D01*
X285322619Y-11030952D01*
D10*
D11*
X60000000Y-198007200D02*
X60000000Y-200007200D01*
D10*
D11*
X110000000Y-198007200D02*
X110000000Y-200007200D01*
D10*
D11*
X160000000Y-198007200D02*
X160000000Y-200007200D01*
D10*
D11*
X210000000Y-198007200D02*
X210000000Y-200007200D01*
D10*
D11*
X260000000Y-198007200D02*
X260000000Y-200007200D01*
D10*
D11*
X36065476Y-199595295D02*
X35322619Y-199595295D01*
X35694047Y-199595295D02*
X35694047Y-198295295D01*
X35570238Y-198481009D01*
X35446428Y-198604819D01*
X35322619Y-198666723D01*
D10*
D11*
X85322619Y-198419104D02*
X85384523Y-198357200D01*
X85508333Y-198295295D01*
X85817857Y-198295295D01*
X85941666Y-198357200D01*
X86003571Y-198419104D01*
X86065476Y-198542914D01*
X86065476Y-198666723D01*
X86003571Y-198852438D01*
X85260714Y-199595295D01*
X86065476Y-199595295D01*
D10*
D11*
X135260714Y-198295295D02*
X136065476Y-198295295D01*
X135632142Y-198790533D01*
X135817857Y-198790533D01*
X135941666Y-198852438D01*
X136003571Y-198914342D01*
X136065476Y-199038152D01*
X136065476Y-199347676D01*
X136003571Y-199471485D01*
X135941666Y-199533390D01*
X135817857Y-199595295D01*
X135446428Y-199595295D01*
X135322619Y-199533390D01*
X135260714Y-199471485D01*
D10*
D11*
X185941666Y-198728628D02*
X185941666Y-199595295D01*
X185632142Y-198233390D02*
X185322619Y-199161961D01*
X186127380Y-199161961D01*
D10*
D11*
X236003571Y-198295295D02*
X235384523Y-198295295D01*
X235322619Y-198914342D01*
X235384523Y-198852438D01*
X235508333Y-198790533D01*
X235817857Y-198790533D01*
X235941666Y-198852438D01*
X236003571Y-198914342D01*
X236065476Y-199038152D01*
X236065476Y-199347676D01*
X236003571Y-199471485D01*
X235941666Y-199533390D01*
X235817857Y-199595295D01*
X235508333Y-199595295D01*
X235384523Y-199533390D01*
X235322619Y-199471485D01*
D10*
D11*
X285941666Y-198295295D02*
X285694047Y-198295295D01*
X285570238Y-198357200D01*
X285508333Y-198419104D01*
X285384523Y-198604819D01*
X285322619Y-198852438D01*
X285322619Y-199347676D01*
X285384523Y-199471485D01*
X285446428Y-199533390D01*
X285570238Y-199595295D01*
X285817857Y-199595295D01*
X285941666Y-199533390D01*
X286003571Y-199471485D01*
X286065476Y-199347676D01*
X286065476Y-199038152D01*
X286003571Y-198914342D01*
X285941666Y-198852438D01*
X285817857Y-198790533D01*
X285570238Y-198790533D01*
X285446428Y-198852438D01*
X285384523Y-198914342D01*
X285322619Y-199038152D01*
D10*
D11*
X10000000Y-60000000D02*
X12000000Y-60000000D01*
D10*
D11*
X10000000Y-110000000D02*
X12000000Y-110000000D01*
D10*
D11*
X10000000Y-160000000D02*
X12000000Y-160000000D01*
D10*
D11*
X10690476Y-35216666D02*
X11309523Y-35216666D01*
X10566666Y-35588095D02*
X11000000Y-34288095D01*
X11433333Y-35588095D01*
D10*
D11*
X11092857Y-84907142D02*
X11278571Y-84969047D01*
X11340476Y-85030952D01*
X11402380Y-85154761D01*
X11402380Y-85340476D01*
X11340476Y-85464285D01*
X11278571Y-85526190D01*
X11154761Y-85588095D01*
X10659523Y-85588095D01*
X10659523Y-84288095D01*
X11092857Y-84288095D01*
X11216666Y-84350000D01*
X11278571Y-84411904D01*
X11340476Y-84535714D01*
X11340476Y-84659523D01*
X11278571Y-84783333D01*
X11216666Y-84845238D01*
X11092857Y-84907142D01*
X10659523Y-84907142D01*
D10*
D11*
X11402380Y-135464285D02*
X11340476Y-135526190D01*
X11154761Y-135588095D01*
X11030952Y-135588095D01*
X10845238Y-135526190D01*
X10721428Y-135402380D01*
X10659523Y-135278571D01*
X10597619Y-135030952D01*
X10597619Y-134845238D01*
X10659523Y-134597619D01*
X10721428Y-134473809D01*
X10845238Y-134350000D01*
X11030952Y-134288095D01*
X11154761Y-134288095D01*
X11340476Y-134350000D01*
X11402380Y-134411904D01*
D10*
D11*
X10659523Y-185588095D02*
X10659523Y-184288095D01*
X10969047Y-184288095D01*
X11154761Y-184350000D01*
X11278571Y-184473809D01*
X11340476Y-184597619D01*
X11402380Y-184845238D01*
X11402380Y-185030952D01*
X11340476Y-185278571D01*
X11278571Y-185402380D01*
X11154761Y-185526190D01*
X10969047Y-185588095D01*
X10659523Y-185588095D01*
D10*
D11*
X287002200Y-60000000D02*
X285002200Y-60000000D01*
D10*
D11*
X287002200Y-110000000D02*
X285002200Y-110000000D01*
D10*
D11*
X287002200Y-160000000D02*
X285002200Y-160000000D01*
D10*
D11*
X285692676Y-35216666D02*
X286311723Y-35216666D01*
X285568866Y-35588095D02*
X286002200Y-34288095D01*
X286435533Y-35588095D01*
D10*
D11*
X286095057Y-84907142D02*
X286280771Y-84969047D01*
X286342676Y-85030952D01*
X286404580Y-85154761D01*
X286404580Y-85340476D01*
X286342676Y-85464285D01*
X286280771Y-85526190D01*
X286156961Y-85588095D01*
X285661723Y-85588095D01*
X285661723Y-84288095D01*
X286095057Y-84288095D01*
X286218866Y-84350000D01*
X286280771Y-84411904D01*
X286342676Y-84535714D01*
X286342676Y-84659523D01*
X286280771Y-84783333D01*
X286218866Y-84845238D01*
X286095057Y-84907142D01*
X285661723Y-84907142D01*
D10*
D11*
X286404580Y-135464285D02*
X286342676Y-135526190D01*
X286156961Y-135588095D01*
X286033152Y-135588095D01*
X285847438Y-135526190D01*
X285723628Y-135402380D01*
X285661723Y-135278571D01*
X285599819Y-135030952D01*
X285599819Y-134845238D01*
X285661723Y-134597619D01*
X285723628Y-134473809D01*
X285847438Y-134350000D01*
X286033152Y-134288095D01*
X286156961Y-134288095D01*
X286342676Y-134350000D01*
X286404580Y-134411904D01*
D10*
D11*
X285661723Y-185588095D02*
X285661723Y-184288095D01*
X285971247Y-184288095D01*
X286156961Y-184350000D01*
X286280771Y-184473809D01*
X286342676Y-184597619D01*
X286404580Y-184845238D01*
X286404580Y-185030952D01*
X286342676Y-185278571D01*
X286280771Y-185402380D01*
X286156961Y-185526190D01*
X285971247Y-185588095D01*
X285661723Y-185588095D01*
D10*
D11*
X200434342Y-193785771D02*
X200434342Y-192285771D01*
X200791485Y-192285771D01*
X201005771Y-192357200D01*
X201148628Y-192500057D01*
X201220057Y-192642914D01*
X201291485Y-192928628D01*
X201291485Y-193142914D01*
X201220057Y-193428628D01*
X201148628Y-193571485D01*
X201005771Y-193714342D01*
X200791485Y-193785771D01*
X200434342Y-193785771D01*
X202577200Y-193785771D02*
X202577200Y-193000057D01*
X202505771Y-192857200D01*
X202362914Y-192785771D01*
X202077200Y-192785771D01*
X201934342Y-192857200D01*
X202577200Y-193714342D02*
X202434342Y-193785771D01*
X202077200Y-193785771D01*
X201934342Y-193714342D01*
X201862914Y-193571485D01*
X201862914Y-193428628D01*
X201934342Y-193285771D01*
X202077200Y-193214342D01*
X202434342Y-193214342D01*
X202577200Y-193142914D01*
X203077200Y-192785771D02*
X203648628Y-192785771D01*
X203291485Y-192285771D02*
X203291485Y-193571485D01*
X203362914Y-193714342D01*
X203505771Y-193785771D01*
X203648628Y-193785771D01*
X204720057Y-193714342D02*
X204577200Y-193785771D01*
X204291485Y-193785771D01*
X204148628Y-193714342D01*
X204077200Y-193571485D01*
X204077200Y-193000057D01*
X204148628Y-192857200D01*
X204291485Y-192785771D01*
X204577200Y-192785771D01*
X204720057Y-192857200D01*
X204791485Y-193000057D01*
X204791485Y-193142914D01*
X204077200Y-193285771D01*
X205434342Y-193642914D02*
X205505771Y-193714342D01*
X205434342Y-193785771D01*
X205362914Y-193714342D01*
X205434342Y-193642914D01*
X205434342Y-193785771D01*
X205434342Y-192857200D02*
X205505771Y-192928628D01*
X205434342Y-193000057D01*
X205362914Y-192928628D01*
X205434342Y-192857200D01*
X205434342Y-193000057D01*
X207220057Y-192428628D02*
X207291485Y-192357200D01*
X207434342Y-192285771D01*
X207791485Y-192285771D01*
X207934342Y-192357200D01*
X208005771Y-192428628D01*
X208077200Y-192571485D01*
X208077200Y-192714342D01*
X208005771Y-192928628D01*
X207148628Y-193785771D01*
X208077200Y-193785771D01*
X209005771Y-192285771D02*
X209148628Y-192285771D01*
X209291485Y-192357200D01*
X209362914Y-192428628D01*
X209434342Y-192571485D01*
X209505771Y-192857200D01*
X209505771Y-193214342D01*
X209434342Y-193500057D01*
X209362914Y-193642914D01*
X209291485Y-193714342D01*
X209148628Y-193785771D01*
X209005771Y-193785771D01*
X208862914Y-193714342D01*
X208791485Y-193642914D01*
X208720057Y-193500057D01*
X208648628Y-193214342D01*
X208648628Y-192857200D01*
X208720057Y-192571485D01*
X208791485Y-192428628D01*
X208862914Y-192357200D01*
X209005771Y-192285771D01*
X210077200Y-192428628D02*
X210148628Y-192357200D01*
X210291485Y-192285771D01*
X210648628Y-192285771D01*
X210791485Y-192357200D01*
X210862914Y-192428628D01*
X210934342Y-192571485D01*
X210934342Y-192714342D01*
X210862914Y-192928628D01*
X210005771Y-193785771D01*
X210934342Y-193785771D01*
X212362914Y-193785771D02*
X211505771Y-193785771D01*
X211934342Y-193785771D02*
X211934342Y-192285771D01*
X211791485Y-192500057D01*
X211648628Y-192642914D01*
X211505771Y-192714342D01*
X213005771Y-193214342D02*
X214148628Y-193214342D01*
X215648628Y-193785771D02*
X214791485Y-193785771D01*
X215220057Y-193785771D02*
X215220057Y-192285771D01*
X215077200Y-192500057D01*
X214934342Y-192642914D01*
X214791485Y-192714342D01*
X216577200Y-192285771D02*
X216720057Y-192285771D01*
X216862914Y-192357200D01*
X216934342Y-192428628D01*
X217005771Y-192571485D01*
X217077200Y-192857200D01*
X217077200Y-193214342D01*
X217005771Y-193500057D01*
X216934342Y-193642914D01*
X216862914Y-193714342D01*
X216720057Y-193785771D01*
X216577200Y-193785771D01*
X216434342Y-193714342D01*
X216362914Y-193642914D01*
X216291485Y-193500057D01*
X216220057Y-193214342D01*
X216220057Y-192857200D01*
X216291485Y-192571485D01*
X216362914Y-192428628D01*
X216434342Y-192357200D01*
X216577200Y-192285771D01*
X217720057Y-193214342D02*
X218862914Y-193214342D01*
X219862914Y-192285771D02*
X220005771Y-192285771D01*
X220148628Y-192357200D01*
X220220057Y-192428628D01*
X220291485Y-192571485D01*
X220362914Y-192857200D01*
X220362914Y-193214342D01*
X220291485Y-193500057D01*
X220220057Y-193642914D01*
X220148628Y-193714342D01*
X220005771Y-193785771D01*
X219862914Y-193785771D01*
X219720057Y-193714342D01*
X219648628Y-193642914D01*
X219577200Y-193500057D01*
X219505771Y-193214342D01*
X219505771Y-192857200D01*
X219577200Y-192571485D01*
X219648628Y-192428628D01*
X219720057Y-192357200D01*
X219862914Y-192285771D01*
X221791485Y-193785771D02*
X220934342Y-193785771D01*
X221362914Y-193785771D02*
X221362914Y-192285771D01*
X221220057Y-192500057D01*
X221077200Y-192642914D01*
X220934342Y-192714342D01*
D10*
D11*
X177002200Y-194507200D02*
X285002200Y-194507200D01*
D10*
D11*
X178434342Y-196585771D02*
X178434342Y-195085771D01*
X179291485Y-196585771D02*
X178648628Y-195728628D01*
X179291485Y-195085771D02*
X178434342Y-195942914D01*
X179934342Y-196585771D02*
X179934342Y-195585771D01*
X179934342Y-195085771D02*
X179862914Y-195157200D01*
X179934342Y-195228628D01*
X180005771Y-195157200D01*
X179934342Y-195085771D01*
X179934342Y-195228628D01*
X181505771Y-196442914D02*
X181434342Y-196514342D01*
X181220057Y-196585771D01*
X181077200Y-196585771D01*
X180862914Y-196514342D01*
X180720057Y-196371485D01*
X180648628Y-196228628D01*
X180577200Y-195942914D01*
X180577200Y-195728628D01*
X180648628Y-195442914D01*
X180720057Y-195300057D01*
X180862914Y-195157200D01*
X181077200Y-195085771D01*
X181220057Y-195085771D01*
X181434342Y-195157200D01*
X181505771Y-195228628D01*
X182791485Y-196585771D02*
X182791485Y-195800057D01*
X182720057Y-195657200D01*
X182577200Y-195585771D01*
X182291485Y-195585771D01*
X182148628Y-195657200D01*
X182791485Y-196514342D02*
X182648628Y-196585771D01*
X182291485Y-196585771D01*
X182148628Y-196514342D01*
X182077200Y-196371485D01*
X182077200Y-196228628D01*
X182148628Y-196085771D01*
X182291485Y-196014342D01*
X182648628Y-196014342D01*
X182791485Y-195942914D01*
X184148628Y-196585771D02*
X184148628Y-195085771D01*
X184148628Y-196514342D02*
X184005771Y-196585771D01*
X183720057Y-196585771D01*
X183577200Y-196514342D01*
X183505771Y-196442914D01*
X183434342Y-196300057D01*
X183434342Y-195871485D01*
X183505771Y-195728628D01*
X183577200Y-195657200D01*
X183720057Y-195585771D01*
X184005771Y-195585771D01*
X184148628Y-195657200D01*
X186005771Y-195800057D02*
X186505771Y-195800057D01*
X186720057Y-196585771D02*
X186005771Y-196585771D01*
X186005771Y-195085771D01*
X186720057Y-195085771D01*
X187362914Y-196442914D02*
X187434342Y-196514342D01*
X187362914Y-196585771D01*
X187291485Y-196514342D01*
X187362914Y-196442914D01*
X187362914Y-196585771D01*
X188077200Y-196585771D02*
X188077200Y-195085771D01*
X188434342Y-195085771D01*
X188648628Y-195157200D01*
X188791485Y-195300057D01*
X188862914Y-195442914D01*
X188934342Y-195728628D01*
X188934342Y-195942914D01*
X188862914Y-196228628D01*
X188791485Y-196371485D01*
X188648628Y-196514342D01*
X188434342Y-196585771D01*
X188077200Y-196585771D01*
X189577200Y-196442914D02*
X189648628Y-196514342D01*
X189577200Y-196585771D01*
X189505771Y-196514342D01*
X189577200Y-196442914D01*
X189577200Y-196585771D01*
X190220057Y-196157200D02*
X190934342Y-196157200D01*
X190077200Y-196585771D02*
X190577200Y-195085771D01*
X191077200Y-196585771D01*
X191577200Y-196442914D02*
X191648628Y-196514342D01*
X191577200Y-196585771D01*
X191505771Y-196514342D01*
X191577200Y-196442914D01*
X191577200Y-196585771D01*
X194577200Y-196585771D02*
X194577200Y-195085771D01*
X194720057Y-196014342D02*
X195148628Y-196585771D01*
X195148628Y-195585771D02*
X194577200Y-196157200D01*
X195791485Y-196585771D02*
X195791485Y-195585771D01*
X195791485Y-195085771D02*
X195720057Y-195157200D01*
X195791485Y-195228628D01*
X195862914Y-195157200D01*
X195791485Y-195085771D01*
X195791485Y-195228628D01*
X197148628Y-196514342D02*
X197005771Y-196585771D01*
X196720057Y-196585771D01*
X196577200Y-196514342D01*
X196505771Y-196442914D01*
X196434342Y-196300057D01*
X196434342Y-195871485D01*
X196505771Y-195728628D01*
X196577200Y-195657200D01*
X196720057Y-195585771D01*
X197005771Y-195585771D01*
X197148628Y-195657200D01*
X198434342Y-196585771D02*
X198434342Y-195800057D01*
X198362914Y-195657200D01*
X198220057Y-195585771D01*
X197934342Y-195585771D01*
X197791485Y-195657200D01*
X198434342Y-196514342D02*
X198291485Y-196585771D01*
X197934342Y-196585771D01*
X197791485Y-196514342D01*
X197720057Y-196371485D01*
X197720057Y-196228628D01*
X197791485Y-196085771D01*
X197934342Y-196014342D01*
X198291485Y-196014342D01*
X198434342Y-195942914D01*
X199791485Y-196585771D02*
X199791485Y-195085771D01*
X199791485Y-196514342D02*
X199648628Y-196585771D01*
X199362914Y-196585771D01*
X199220057Y-196514342D01*
X199148628Y-196442914D01*
X199077200Y-196300057D01*
X199077200Y-195871485D01*
X199148628Y-195728628D01*
X199220057Y-195657200D01*
X199362914Y-195585771D01*
X199648628Y-195585771D01*
X199791485Y-195657200D01*
X202362914Y-195085771D02*
X201648628Y-195085771D01*
X201577200Y-195800057D01*
X201648628Y-195728628D01*
X201791485Y-195657200D01*
X202148628Y-195657200D01*
X202291485Y-195728628D01*
X202362914Y-195800057D01*
X202434342Y-195942914D01*
X202434342Y-196300057D01*
X202362914Y-196442914D01*
X202291485Y-196514342D01*
X202148628Y-196585771D01*
X201791485Y-196585771D01*
X201648628Y-196514342D01*
X201577200Y-196442914D01*
X203077200Y-196442914D02*
X203148628Y-196514342D01*
X203077200Y-196585771D01*
X203005771Y-196514342D01*
X203077200Y-196442914D01*
X203077200Y-196585771D01*
X204577200Y-196585771D02*
X203720057Y-196585771D01*
X204148628Y-196585771D02*
X204148628Y-195085771D01*
X204005771Y-195300057D01*
X203862914Y-195442914D01*
X203720057Y-195514342D01*
X205220057Y-196442914D02*
X205291485Y-196514342D01*
X205220057Y-196585771D01*
X205148628Y-196514342D01*
X205220057Y-196442914D01*
X205220057Y-196585771D01*
X206720057Y-196585771D02*
X205862914Y-196585771D01*
X206291485Y-196585771D02*
X206291485Y-195085771D01*
X206148628Y-195300057D01*
X206005771Y-195442914D01*
X205862914Y-195514342D01*
X207648628Y-195085771D02*
X207791485Y-195085771D01*
X207934342Y-195157200D01*
X208005771Y-195228628D01*
X208077200Y-195371485D01*
X208148628Y-195657200D01*
X208148628Y-196014342D01*
X208077200Y-196300057D01*
X208005771Y-196442914D01*
X207934342Y-196514342D01*
X207791485Y-196585771D01*
X207648628Y-196585771D01*
X207505771Y-196514342D01*
X207434342Y-196442914D01*
X207362914Y-196300057D01*
X207291485Y-196014342D01*
X207291485Y-195657200D01*
X207362914Y-195371485D01*
X207434342Y-195228628D01*
X207505771Y-195157200D01*
X207648628Y-195085771D01*
X208791485Y-196014342D02*
X209934342Y-196014342D01*
X210862914Y-195728628D02*
X210720057Y-195657200D01*
X210648628Y-195585771D01*
X210577200Y-195442914D01*
X210577200Y-195371485D01*
X210648628Y-195228628D01*
X210720057Y-195157200D01*
X210862914Y-195085771D01*
X211148628Y-195085771D01*
X211291485Y-195157200D01*
X211362914Y-195228628D01*
X211434342Y-195371485D01*
X211434342Y-195442914D01*
X211362914Y-195585771D01*
X211291485Y-195657200D01*
X211148628Y-195728628D01*
X210862914Y-195728628D01*
X210720057Y-195800057D01*
X210648628Y-195871485D01*
X210577200Y-196014342D01*
X210577200Y-196300057D01*
X210648628Y-196442914D01*
X210720057Y-196514342D01*
X210862914Y-196585771D01*
X211148628Y-196585771D01*
X211291485Y-196514342D01*
X211362914Y-196442914D01*
X211434342Y-196300057D01*
X211434342Y-196014342D01*
X211362914Y-195871485D01*
X211291485Y-195800057D01*
X211148628Y-195728628D01*
X212291485Y-195728628D02*
X212148628Y-195657200D01*
X212077200Y-195585771D01*
X212005771Y-195442914D01*
X212005771Y-195371485D01*
X212077200Y-195228628D01*
X212148628Y-195157200D01*
X212291485Y-195085771D01*
X212577200Y-195085771D01*
X212720057Y-195157200D01*
X212791485Y-195228628D01*
X212862914Y-195371485D01*
X212862914Y-195442914D01*
X212791485Y-195585771D01*
X212720057Y-195657200D01*
X212577200Y-195728628D01*
X212291485Y-195728628D01*
X212148628Y-195800057D01*
X212077200Y-195871485D01*
X212005771Y-196014342D01*
X212005771Y-196300057D01*
X212077200Y-196442914D01*
X212148628Y-196514342D01*
X212291485Y-196585771D01*
X212577200Y-196585771D01*
X212720057Y-196514342D01*
X212791485Y-196442914D01*
X212862914Y-196300057D01*
X212862914Y-196014342D01*
X212791485Y-195871485D01*
X212720057Y-195800057D01*
X212577200Y-195728628D01*
X214148628Y-196585771D02*
X214148628Y-195800057D01*
X214077200Y-195657200D01*
X213934342Y-195585771D01*
X213648628Y-195585771D01*
X213505771Y-195657200D01*
X214148628Y-196514342D02*
X214005771Y-196585771D01*
X213648628Y-196585771D01*
X213505771Y-196514342D01*
X213434342Y-196371485D01*
X213434342Y-196228628D01*
X213505771Y-196085771D01*
X213648628Y-196014342D01*
X214005771Y-196014342D01*
X214148628Y-195942914D01*
X215648628Y-196585771D02*
X214791485Y-196585771D01*
X215220057Y-196585771D02*
X215220057Y-195085771D01*
X215077200Y-195300057D01*
X214934342Y-195442914D01*
X214791485Y-195514342D01*
X216934342Y-196585771D02*
X216934342Y-195085771D01*
X216934342Y-196514342D02*
X216791485Y-196585771D01*
X216505771Y-196585771D01*
X216362914Y-196514342D01*
X216291485Y-196442914D01*
X216220057Y-196300057D01*
X216220057Y-195871485D01*
X216291485Y-195728628D01*
X216362914Y-195657200D01*
X216505771Y-195585771D01*
X216791485Y-195585771D01*
X216934342Y-195657200D01*
X218291485Y-195085771D02*
X218005771Y-195085771D01*
X217862914Y-195157200D01*
X217791485Y-195228628D01*
X217648628Y-195442914D01*
X217577200Y-195728628D01*
X217577200Y-196300057D01*
X217648628Y-196442914D01*
X217720057Y-196514342D01*
X217862914Y-196585771D01*
X218148628Y-196585771D01*
X218291485Y-196514342D01*
X218362914Y-196442914D01*
X218434342Y-196300057D01*
X218434342Y-195942914D01*
X218362914Y-195800057D01*
X218291485Y-195728628D01*
X218148628Y-195657200D01*
X217862914Y-195657200D01*
X217720057Y-195728628D01*
X217648628Y-195800057D01*
X217577200Y-195942914D01*
X219862914Y-196585771D02*
X219005771Y-196585771D01*
X219434342Y-196585771D02*
X219434342Y-195085771D01*
X219291485Y-195300057D01*
X219148628Y-195442914D01*
X219005771Y-195514342D01*
X221148628Y-196585771D02*
X221148628Y-195085771D01*
X221148628Y-196514342D02*
X221005771Y-196585771D01*
X220720057Y-196585771D01*
X220577200Y-196514342D01*
X220505771Y-196442914D01*
X220434342Y-196300057D01*
X220434342Y-195871485D01*
X220505771Y-195728628D01*
X220577200Y-195657200D01*
X220720057Y-195585771D01*
X221005771Y-195585771D01*
X221148628Y-195657200D01*
X222577200Y-195085771D02*
X221862914Y-195085771D01*
X221791485Y-195800057D01*
X221862914Y-195728628D01*
X222005771Y-195657200D01*
X222362914Y-195657200D01*
X222505771Y-195728628D01*
X222577200Y-195800057D01*
X222648628Y-195942914D01*
X222648628Y-196300057D01*
X222577200Y-196442914D01*
X222505771Y-196514342D01*
X222362914Y-196585771D01*
X222005771Y-196585771D01*
X221862914Y-196514342D01*
X221791485Y-196442914D01*
X223505771Y-195728628D02*
X223362914Y-195657200D01*
X223291485Y-195585771D01*
X223220057Y-195442914D01*
X223220057Y-195371485D01*
X223291485Y-195228628D01*
X223362914Y-195157200D01*
X223505771Y-195085771D01*
X223791485Y-195085771D01*
X223934342Y-195157200D01*
X224005771Y-195228628D01*
X224077200Y-195371485D01*
X224077200Y-195442914D01*
X224005771Y-195585771D01*
X223934342Y-195657200D01*
X223791485Y-195728628D01*
X223505771Y-195728628D01*
X223362914Y-195800057D01*
X223291485Y-195871485D01*
X223220057Y-196014342D01*
X223220057Y-196300057D01*
X223291485Y-196442914D01*
X223362914Y-196514342D01*
X223505771Y-196585771D01*
X223791485Y-196585771D01*
X223934342Y-196514342D01*
X224005771Y-196442914D01*
X224077200Y-196300057D01*
X224077200Y-196014342D01*
X224005771Y-195871485D01*
X223934342Y-195800057D01*
X223791485Y-195728628D01*
X224362914Y-194677200D02*
X225791485Y-194677200D01*
X224934342Y-195728628D02*
X224791485Y-195657200D01*
X224720057Y-195585771D01*
X224648628Y-195442914D01*
X224648628Y-195371485D01*
X224720057Y-195228628D01*
X224791485Y-195157200D01*
X224934342Y-195085771D01*
X225220057Y-195085771D01*
X225362914Y-195157200D01*
X225434342Y-195228628D01*
X225505771Y-195371485D01*
X225505771Y-195442914D01*
X225434342Y-195585771D01*
X225362914Y-195657200D01*
X225220057Y-195728628D01*
X224934342Y-195728628D01*
X224791485Y-195800057D01*
X224720057Y-195871485D01*
X224648628Y-196014342D01*
X224648628Y-196300057D01*
X224720057Y-196442914D01*
X224791485Y-196514342D01*
X224934342Y-196585771D01*
X225220057Y-196585771D01*
X225362914Y-196514342D01*
X225434342Y-196442914D01*
X225505771Y-196300057D01*
X225505771Y-196014342D01*
X225434342Y-195871485D01*
X225362914Y-195800057D01*
X225220057Y-195728628D01*
X225791485Y-194677200D02*
X227220057Y-194677200D01*
X226362914Y-195728628D02*
X226220057Y-195657200D01*
X226148628Y-195585771D01*
X226077199Y-195442914D01*
X226077199Y-195371485D01*
X226148628Y-195228628D01*
X226220057Y-195157200D01*
X226362914Y-195085771D01*
X226648628Y-195085771D01*
X226791485Y-195157200D01*
X226862914Y-195228628D01*
X226934342Y-195371485D01*
X226934342Y-195442914D01*
X226862914Y-195585771D01*
X226791485Y-195657200D01*
X226648628Y-195728628D01*
X226362914Y-195728628D01*
X226220057Y-195800057D01*
X226148628Y-195871485D01*
X226077199Y-196014342D01*
X226077199Y-196300057D01*
X226148628Y-196442914D01*
X226220057Y-196514342D01*
X226362914Y-196585771D01*
X226648628Y-196585771D01*
X226791485Y-196514342D01*
X226862914Y-196442914D01*
X226934342Y-196300057D01*
X226934342Y-196014342D01*
X226862914Y-195871485D01*
X226791485Y-195800057D01*
X226648628Y-195728628D01*
X228220057Y-195585771D02*
X228220057Y-196585771D01*
X227577199Y-195585771D02*
X227577199Y-196371485D01*
X227648628Y-196514342D01*
X227791485Y-196585771D01*
X228005771Y-196585771D01*
X228148628Y-196514342D01*
X228220057Y-196442914D01*
X228934342Y-196585771D02*
X228934342Y-195085771D01*
X228934342Y-195657200D02*
X229077199Y-195585771D01*
X229362914Y-195585771D01*
X229505771Y-195657200D01*
X229577199Y-195728628D01*
X229648628Y-195871485D01*
X229648628Y-196300057D01*
X229577199Y-196442914D01*
X229505771Y-196514342D01*
X229362914Y-196585771D01*
X229077199Y-196585771D01*
X228934342Y-196514342D01*
X230934342Y-195585771D02*
X230934342Y-196585771D01*
X230291485Y-195585771D02*
X230291485Y-196371485D01*
X230362914Y-196514342D01*
X230505771Y-196585771D01*
X230720057Y-196585771D01*
X230862914Y-196514342D01*
X230934342Y-196442914D01*
X231648628Y-195585771D02*
X231648628Y-196585771D01*
X231648628Y-195728628D02*
X231720057Y-195657200D01*
X231862914Y-195585771D01*
X232077199Y-195585771D01*
X232220057Y-195657200D01*
X232291485Y-195800057D01*
X232291485Y-196585771D01*
X232791485Y-195585771D02*
X233362914Y-195585771D01*
X233005771Y-195085771D02*
X233005771Y-196371485D01*
X233077199Y-196514342D01*
X233220057Y-196585771D01*
X233362914Y-196585771D01*
X234505771Y-195585771D02*
X234505771Y-196585771D01*
X233862914Y-195585771D02*
X233862914Y-196371485D01*
X233934342Y-196514342D01*
X234077200Y-196585771D01*
X234291485Y-196585771D01*
X234434342Y-196514342D01*
X234505771Y-196442914D01*
X236005771Y-196585771D02*
X235148628Y-196585771D01*
X235577200Y-196585771D02*
X235577200Y-195085771D01*
X235434342Y-195300057D01*
X235291485Y-195442914D01*
X235148628Y-195514342D01*
X237291485Y-195085771D02*
X237005771Y-195085771D01*
X236862914Y-195157200D01*
X236791485Y-195228628D01*
X236648628Y-195442914D01*
X236577199Y-195728628D01*
X236577199Y-196300057D01*
X236648628Y-196442914D01*
X236720057Y-196514342D01*
X236862914Y-196585771D01*
X237148628Y-196585771D01*
X237291485Y-196514342D01*
X237362914Y-196442914D01*
X237434342Y-196300057D01*
X237434342Y-195942914D01*
X237362914Y-195800057D01*
X237291485Y-195728628D01*
X237148628Y-195657200D01*
X236862914Y-195657200D01*
X236720057Y-195728628D01*
X236648628Y-195800057D01*
X236577199Y-195942914D01*
X238077199Y-196442914D02*
X238148628Y-196514342D01*
X238077199Y-196585771D01*
X238005771Y-196514342D01*
X238077199Y-196442914D01*
X238077199Y-196585771D01*
X239077199Y-195085771D02*
X239220057Y-195085771D01*
X239362914Y-195157200D01*
X239434342Y-195228628D01*
X239505771Y-195371485D01*
X239577199Y-195657200D01*
X239577199Y-196014342D01*
X239505771Y-196300057D01*
X239434342Y-196442914D01*
X239362914Y-196514342D01*
X239220057Y-196585771D01*
X239077199Y-196585771D01*
X238934342Y-196514342D01*
X238862914Y-196442914D01*
X238791485Y-196300057D01*
X238720057Y-196014342D01*
X238720057Y-195657200D01*
X238791485Y-195371485D01*
X238862914Y-195228628D01*
X238934342Y-195157200D01*
X239077199Y-195085771D01*
X240862914Y-195585771D02*
X240862914Y-196585771D01*
X240505771Y-195014342D02*
X240148628Y-196085771D01*
X241077199Y-196085771D01*
X241648628Y-196442914D02*
X241720057Y-196514342D01*
X241648628Y-196585771D01*
X241577199Y-196514342D01*
X241648628Y-196442914D01*
X241648628Y-196585771D01*
X243148628Y-196585771D02*
X242291485Y-196585771D01*
X242720057Y-196585771D02*
X242720057Y-195085771D01*
X242577199Y-195300057D01*
X242434342Y-195442914D01*
X242291485Y-195514342D01*
D10*
D11*
X177002200Y-191507200D02*
X285002200Y-191507200D01*
D10*
D12*
X264411485Y-193785771D02*
X263911485Y-193071485D01*
X263554342Y-193785771D02*
X263554342Y-192285771D01*
X264125771Y-192285771D01*
X264268628Y-192357200D01*
X264340057Y-192428628D01*
X264411485Y-192571485D01*
X264411485Y-192785771D01*
X264340057Y-192928628D01*
X264268628Y-193000057D01*
X264125771Y-193071485D01*
X263554342Y-193071485D01*
X265625771Y-193714342D02*
X265482914Y-193785771D01*
X265197200Y-193785771D01*
X265054342Y-193714342D01*
X264982914Y-193571485D01*
X264982914Y-193000057D01*
X265054342Y-192857200D01*
X265197200Y-192785771D01*
X265482914Y-192785771D01*
X265625771Y-192857200D01*
X265697200Y-193000057D01*
X265697200Y-193142914D01*
X264982914Y-193285771D01*
X266197200Y-192785771D02*
X266554342Y-193785771D01*
X266911485Y-192785771D01*
X267482914Y-193642914D02*
X267554342Y-193714342D01*
X267482914Y-193785771D01*
X267411485Y-193714342D01*
X267482914Y-193642914D01*
X267482914Y-193785771D01*
X267482914Y-192857200D02*
X267554342Y-192928628D01*
X267482914Y-193000057D01*
X267411485Y-192928628D01*
X267482914Y-192857200D01*
X267482914Y-193000057D01*
X270125771Y-193785771D02*
X269268628Y-193785771D01*
X269697200Y-193785771D02*
X269697200Y-192285771D01*
X269554342Y-192500057D01*
X269411485Y-192642914D01*
X269268628Y-192714342D01*
D10*
D11*
X178362914Y-193714342D02*
X178577200Y-193785771D01*
X178934342Y-193785771D01*
X179077200Y-193714342D01*
X179148628Y-193642914D01*
X179220057Y-193500057D01*
X179220057Y-193357200D01*
X179148628Y-193214342D01*
X179077200Y-193142914D01*
X178934342Y-193071485D01*
X178648628Y-193000057D01*
X178505771Y-192928628D01*
X178434342Y-192857200D01*
X178362914Y-192714342D01*
X178362914Y-192571485D01*
X178434342Y-192428628D01*
X178505771Y-192357200D01*
X178648628Y-192285771D01*
X179005771Y-192285771D01*
X179220057Y-192357200D01*
X179862914Y-193785771D02*
X179862914Y-192785771D01*
X179862914Y-192285771D02*
X179791485Y-192357200D01*
X179862914Y-192428628D01*
X179934342Y-192357200D01*
X179862914Y-192285771D01*
X179862914Y-192428628D01*
X180434342Y-192785771D02*
X181220057Y-192785771D01*
X180434342Y-193785771D01*
X181220057Y-193785771D01*
X182362914Y-193714342D02*
X182220057Y-193785771D01*
X181934342Y-193785771D01*
X181791485Y-193714342D01*
X181720057Y-193571485D01*
X181720057Y-193000057D01*
X181791485Y-192857200D01*
X181934342Y-192785771D01*
X182220057Y-192785771D01*
X182362914Y-192857200D01*
X182434342Y-193000057D01*
X182434342Y-193142914D01*
X181720057Y-193285771D01*
X183077200Y-193642914D02*
X183148628Y-193714342D01*
X183077200Y-193785771D01*
X183005771Y-193714342D01*
X183077200Y-193642914D01*
X183077200Y-193785771D01*
X183077200Y-192857200D02*
X183148628Y-192928628D01*
X183077200Y-193000057D01*
X183005771Y-192928628D01*
X183077200Y-192857200D01*
X183077200Y-193000057D01*
X184862914Y-193357200D02*
X185577200Y-193357200D01*
X184720057Y-193785771D02*
X185220057Y-192285771D01*
X185720057Y-193785771D01*
X186862914Y-192785771D02*
X186862914Y-193785771D01*
X186505771Y-192214342D02*
X186148628Y-193285771D01*
X187077200Y-193285771D01*
D10*
D11*
X263434342Y-196585771D02*
X263434342Y-195085771D01*
X264791485Y-196585771D02*
X264791485Y-195085771D01*
X264791485Y-196514342D02*
X264648628Y-196585771D01*
X264362914Y-196585771D01*
X264220057Y-196514342D01*
X264148628Y-196442914D01*
X264077200Y-196300057D01*
X264077200Y-195871485D01*
X264148628Y-195728628D01*
X264220057Y-195657200D01*
X264362914Y-195585771D01*
X264648628Y-195585771D01*
X264791485Y-195657200D01*
X265505771Y-196442914D02*
X265577200Y-196514342D01*
X265505771Y-196585771D01*
X265434342Y-196514342D01*
X265505771Y-196442914D01*
X265505771Y-196585771D01*
X265505771Y-195657200D02*
X265577200Y-195728628D01*
X265505771Y-195800057D01*
X265434342Y-195728628D01*
X265505771Y-195657200D01*
X265505771Y-195800057D01*
X268148628Y-196585771D02*
X267291485Y-196585771D01*
X267720057Y-196585771D02*
X267720057Y-195085771D01*
X267577200Y-195300057D01*
X267434342Y-195442914D01*
X267291485Y-195514342D01*
X269862914Y-195014342D02*
X268577200Y-196942914D01*
X271148628Y-196585771D02*
X270291485Y-196585771D01*
X270720057Y-196585771D02*
X270720057Y-195085771D01*
X270577200Y-195300057D01*
X270434342Y-195442914D01*
X270291485Y-195514342D01*
D10*
D11*
X177002200Y-187507200D02*
X285002200Y-187507200D01*
D10*
D13*
X178714580Y-188211961D02*
X179857438Y-188211961D01*
X179036009Y-190211961D02*
X179286009Y-188211961D01*
X180274104Y-190211961D02*
X180440771Y-188878628D01*
X180524104Y-188211961D02*
X180416961Y-188307200D01*
X180500295Y-188402438D01*
X180607438Y-188307200D01*
X180524104Y-188211961D01*
X180500295Y-188402438D01*
X181107438Y-188878628D02*
X181869342Y-188878628D01*
X181476485Y-188211961D02*
X181262200Y-189926247D01*
X181333628Y-190116723D01*
X181512200Y-190211961D01*
X181702676Y-190211961D01*
X182655057Y-190211961D02*
X182476485Y-190116723D01*
X182405057Y-189926247D01*
X182619342Y-188211961D01*
X184190771Y-190116723D02*
X183988390Y-190211961D01*
X183607438Y-190211961D01*
X183428866Y-190116723D01*
X183357438Y-189926247D01*
X183452676Y-189164342D01*
X183571723Y-188973866D01*
X183774104Y-188878628D01*
X184155057Y-188878628D01*
X184333628Y-188973866D01*
X184405057Y-189164342D01*
X184381247Y-189354819D01*
X183405057Y-189545295D01*
X185155057Y-190021485D02*
X185238390Y-190116723D01*
X185131247Y-190211961D01*
X185047914Y-190116723D01*
X185155057Y-190021485D01*
X185131247Y-190211961D01*
X185286009Y-188973866D02*
X185369342Y-189069104D01*
X185262200Y-189164342D01*
X185178866Y-189069104D01*
X185286009Y-188973866D01*
X185262200Y-189164342D01*
X188559819Y-190211961D02*
X187607438Y-190211961D01*
X187857438Y-188211961D01*
X189190771Y-188211961D02*
X190333628Y-188211961D01*
X189512200Y-190211961D02*
X189762200Y-188211961D01*
X191916961Y-190021485D02*
X191809819Y-190116723D01*
X191512200Y-190211961D01*
X191321723Y-190211961D01*
X191047914Y-190116723D01*
X190881247Y-189926247D01*
X190809819Y-189735771D01*
X190762200Y-189354819D01*
X190797914Y-189069104D01*
X190940771Y-188688152D01*
X191059819Y-188497676D01*
X191274104Y-188307200D01*
X191571723Y-188211961D01*
X191762200Y-188211961D01*
X192036009Y-188307200D01*
X192119342Y-188402438D01*
X193774104Y-188878628D02*
X193607438Y-190211961D01*
X193393152Y-188116723D02*
X192738390Y-189545295D01*
X193976485Y-189545295D01*
X195286009Y-188211961D02*
X195476485Y-188211961D01*
X195655057Y-188307200D01*
X195738390Y-188402438D01*
X195809819Y-188592914D01*
X195857438Y-188973866D01*
X195797914Y-189450057D01*
X195655057Y-189831009D01*
X195536009Y-190021485D01*
X195428866Y-190116723D01*
X195226485Y-190211961D01*
X195036009Y-190211961D01*
X194857438Y-190116723D01*
X194774104Y-190021485D01*
X194702676Y-189831009D01*
X194655057Y-189450057D01*
X194714580Y-188973866D01*
X194857438Y-188592914D01*
X194976485Y-188402438D01*
X195083628Y-188307200D01*
X195286009Y-188211961D01*
X197666961Y-188211961D02*
X197286009Y-188211961D01*
X197083628Y-188307200D01*
X196976485Y-188402438D01*
X196750295Y-188688152D01*
X196607438Y-189069104D01*
X196512200Y-189831009D01*
X196583628Y-190021485D01*
X196666961Y-190116723D01*
X196845533Y-190211961D01*
X197226485Y-190211961D01*
X197428866Y-190116723D01*
X197536009Y-190021485D01*
X197655057Y-189831009D01*
X197714580Y-189354819D01*
X197643152Y-189164342D01*
X197559819Y-189069104D01*
X197381247Y-188973866D01*
X197000295Y-188973866D01*
X196797914Y-189069104D01*
X196690771Y-189164342D01*
X196571723Y-189354819D01*
X199095533Y-188211961D02*
X199286009Y-188211961D01*
X199464580Y-188307200D01*
X199547914Y-188402438D01*
X199619342Y-188592914D01*
X199666961Y-188973866D01*
X199607438Y-189450057D01*
X199464580Y-189831009D01*
X199345533Y-190021485D01*
X199238390Y-190116723D01*
X199036009Y-190211961D01*
X198845533Y-190211961D01*
X198666961Y-190116723D01*
X198583628Y-190021485D01*
X198512200Y-189831009D01*
X198464580Y-189450057D01*
X198524104Y-188973866D01*
X198666961Y-188592914D01*
X198786009Y-188402438D01*
X198893152Y-188307200D01*
X199095533Y-188211961D01*
X201893152Y-190211961D02*
X202143152Y-188211961D01*
X203036009Y-190211961D01*
X203286009Y-188211961D01*
X203988390Y-190211961D02*
X204155057Y-188878628D01*
X204238390Y-188211961D02*
X204131247Y-188307200D01*
X204214580Y-188402438D01*
X204321723Y-188307200D01*
X204238390Y-188211961D01*
X204214580Y-188402438D01*
X206107438Y-190021485D02*
X206000295Y-190116723D01*
X205702676Y-190211961D01*
X205512200Y-190211961D01*
X205238390Y-190116723D01*
X205071723Y-189926247D01*
X205000295Y-189735771D01*
X204952676Y-189354819D01*
X204988390Y-189069104D01*
X205131247Y-188688152D01*
X205250295Y-188497676D01*
X205464580Y-188307200D01*
X205762200Y-188211961D01*
X205952676Y-188211961D01*
X206226485Y-188307200D01*
X206309819Y-188402438D01*
X207797914Y-190211961D02*
X208047914Y-188211961D01*
X207809819Y-190116723D02*
X207607438Y-190211961D01*
X207226485Y-190211961D01*
X207047914Y-190116723D01*
X206964580Y-190021485D01*
X206893152Y-189831009D01*
X206964580Y-189259580D01*
X207083628Y-189069104D01*
X207190771Y-188973866D01*
X207393152Y-188878628D01*
X207774104Y-188878628D01*
X207952676Y-188973866D01*
X210440771Y-188116723D02*
X208405057Y-190688152D01*
X210845533Y-190211961D02*
X211095533Y-188211961D01*
X211988390Y-190211961D01*
X212238390Y-188211961D01*
X212940771Y-190211961D02*
X213107438Y-188878628D01*
X213190771Y-188211961D02*
X213083628Y-188307200D01*
X213166961Y-188402438D01*
X213274104Y-188307200D01*
X213190771Y-188211961D01*
X213166961Y-188402438D01*
X213893152Y-190211961D02*
X214143152Y-188211961D01*
X214631247Y-189640533D01*
X215476485Y-188211961D01*
X215226485Y-190211961D01*
X216178866Y-190211961D02*
X216428866Y-188211961D01*
X216309819Y-189164342D02*
X217452676Y-189164342D01*
X217321723Y-190211961D02*
X217571723Y-188211961D01*
X220845533Y-190211961D02*
X219702676Y-190211961D01*
X220274104Y-190211961D02*
X220524104Y-188211961D01*
X220297914Y-188497676D01*
X220083628Y-188688152D01*
X219881247Y-188783390D01*
X221797914Y-189450057D02*
X223321723Y-189450057D01*
X225202676Y-188878628D02*
X225036009Y-190211961D01*
X224821723Y-188116723D02*
X224166961Y-189545295D01*
X225405057Y-189545295D01*
X228476485Y-190116723D02*
X228274104Y-190211961D01*
X227893152Y-190211961D01*
X227714580Y-190116723D01*
X227631247Y-190021485D01*
X227559819Y-189831009D01*
X227631247Y-189259580D01*
X227750295Y-189069104D01*
X227857438Y-188973866D01*
X228059819Y-188878628D01*
X228440771Y-188878628D01*
X228619342Y-188973866D01*
X230095533Y-190116723D02*
X229893152Y-190211961D01*
X229512200Y-190211961D01*
X229333628Y-190116723D01*
X229262200Y-189926247D01*
X229357438Y-189164342D01*
X229476485Y-188973866D01*
X229678866Y-188878628D01*
X230059819Y-188878628D01*
X230238390Y-188973866D01*
X230309819Y-189164342D01*
X230286009Y-189354819D01*
X229309819Y-189545295D01*
X231321723Y-190211961D02*
X231143152Y-190116723D01*
X231071723Y-189926247D01*
X231286009Y-188211961D01*
X232369342Y-190211961D02*
X232190771Y-190116723D01*
X232119342Y-189926247D01*
X232333628Y-188211961D01*
X234655057Y-190211961D02*
X234905057Y-188211961D01*
X234809819Y-188973866D02*
X235012199Y-188878628D01*
X235393152Y-188878628D01*
X235571723Y-188973866D01*
X235655057Y-189069104D01*
X235726485Y-189259580D01*
X235655057Y-189831009D01*
X235536009Y-190021485D01*
X235428866Y-190116723D01*
X235226485Y-190211961D01*
X234845533Y-190211961D01*
X234666961Y-190116723D01*
X237321723Y-190211961D02*
X237452676Y-189164342D01*
X237381247Y-188973866D01*
X237202676Y-188878628D01*
X236821723Y-188878628D01*
X236619342Y-188973866D01*
X237333628Y-190116723D02*
X237131247Y-190211961D01*
X236655057Y-190211961D01*
X236476485Y-190116723D01*
X236405057Y-189926247D01*
X236428866Y-189735771D01*
X236547914Y-189545295D01*
X236750295Y-189450057D01*
X237226485Y-189450057D01*
X237428866Y-189354819D01*
X238155057Y-188878628D02*
X238916961Y-188878628D01*
X238524104Y-188211961D02*
X238309819Y-189926247D01*
X238381247Y-190116723D01*
X238559819Y-190211961D01*
X238750295Y-190211961D01*
X239297914Y-188878628D02*
X240059819Y-188878628D01*
X239666961Y-188211961D02*
X239452676Y-189926247D01*
X239524104Y-190116723D01*
X239702676Y-190211961D01*
X239893152Y-190211961D01*
X241333628Y-190116723D02*
X241131247Y-190211961D01*
X240750295Y-190211961D01*
X240571723Y-190116723D01*
X240500295Y-189926247D01*
X240595533Y-189164342D01*
X240714580Y-188973866D01*
X240916961Y-188878628D01*
X241297914Y-188878628D01*
X241476485Y-188973866D01*
X241547914Y-189164342D01*
X241524104Y-189354819D01*
X240547914Y-189545295D01*
X242274104Y-190211961D02*
X242440771Y-188878628D01*
X242393152Y-189259580D02*
X242512199Y-189069104D01*
X242619342Y-188973866D01*
X242821723Y-188878628D01*
X243012199Y-188878628D01*
X243488390Y-188878628D02*
X243797914Y-190211961D01*
X244440771Y-188878628D02*
X243797914Y-190211961D01*
X243547914Y-190688152D01*
X243440771Y-190783390D01*
X243238390Y-190878628D01*
X247428866Y-190116723D02*
X247226485Y-190211961D01*
X246845533Y-190211961D01*
X246666961Y-190116723D01*
X246583628Y-190021485D01*
X246512200Y-189831009D01*
X246583628Y-189259580D01*
X246702676Y-189069104D01*
X246809819Y-188973866D01*
X247012200Y-188878628D01*
X247393152Y-188878628D01*
X247571723Y-188973866D01*
X248274104Y-190211961D02*
X248524104Y-188211961D01*
X249131247Y-190211961D02*
X249262200Y-189164342D01*
X249190771Y-188973866D01*
X249012200Y-188878628D01*
X248726485Y-188878628D01*
X248524104Y-188973866D01*
X248416961Y-189069104D01*
X250940771Y-190211961D02*
X251071723Y-189164342D01*
X251000295Y-188973866D01*
X250821723Y-188878628D01*
X250440771Y-188878628D01*
X250238390Y-188973866D01*
X250952676Y-190116723D02*
X250750295Y-190211961D01*
X250274104Y-190211961D01*
X250095533Y-190116723D01*
X250024104Y-189926247D01*
X250047914Y-189735771D01*
X250166961Y-189545295D01*
X250369342Y-189450057D01*
X250845533Y-189450057D01*
X251047914Y-189354819D01*
X251893152Y-190211961D02*
X252059819Y-188878628D01*
X252012200Y-189259580D02*
X252131247Y-189069104D01*
X252238390Y-188973866D01*
X252440771Y-188878628D01*
X252631247Y-188878628D01*
X254155057Y-188878628D02*
X253952676Y-190497676D01*
X253833628Y-190688152D01*
X253726485Y-190783390D01*
X253524104Y-190878628D01*
X253238390Y-190878628D01*
X253059819Y-190783390D01*
X254000295Y-190116723D02*
X253797914Y-190211961D01*
X253416961Y-190211961D01*
X253238390Y-190116723D01*
X253155057Y-190021485D01*
X253083628Y-189831009D01*
X253155057Y-189259580D01*
X253274104Y-189069104D01*
X253381247Y-188973866D01*
X253583628Y-188878628D01*
X253964580Y-188878628D01*
X254143152Y-188973866D01*
X255714580Y-190116723D02*
X255512199Y-190211961D01*
X255131247Y-190211961D01*
X254952676Y-190116723D01*
X254881247Y-189926247D01*
X254976485Y-189164342D01*
X255095533Y-188973866D01*
X255297914Y-188878628D01*
X255678866Y-188878628D01*
X255857438Y-188973866D01*
X255928866Y-189164342D01*
X255905057Y-189354819D01*
X254928866Y-189545295D01*
X256655057Y-190211961D02*
X256821723Y-188878628D01*
X256774104Y-189259580D02*
X256893152Y-189069104D01*
X257000295Y-188973866D01*
X257202676Y-188878628D01*
X257393152Y-188878628D01*
D10*
D11*
X178934342Y-185600057D02*
X178434342Y-185600057D01*
X178434342Y-186385771D02*
X178434342Y-184885771D01*
X179148628Y-184885771D01*
X179720057Y-186385771D02*
X179720057Y-185385771D01*
X179720057Y-184885771D02*
X179648628Y-184957200D01*
X179720057Y-185028628D01*
X179791485Y-184957200D01*
X179720057Y-184885771D01*
X179720057Y-185028628D01*
X180648628Y-186385771D02*
X180505771Y-186314342D01*
X180434342Y-186171485D01*
X180434342Y-184885771D01*
X181791485Y-186314342D02*
X181648628Y-186385771D01*
X181362914Y-186385771D01*
X181220057Y-186314342D01*
X181148628Y-186171485D01*
X181148628Y-185600057D01*
X181220057Y-185457200D01*
X181362914Y-185385771D01*
X181648628Y-185385771D01*
X181791485Y-185457200D01*
X181862914Y-185600057D01*
X181862914Y-185742914D01*
X181148628Y-185885771D01*
X182505771Y-186242914D02*
X182577200Y-186314342D01*
X182505771Y-186385771D01*
X182434342Y-186314342D01*
X182505771Y-186242914D01*
X182505771Y-186385771D01*
X182505771Y-185457200D02*
X182577200Y-185528628D01*
X182505771Y-185600057D01*
X182434342Y-185528628D01*
X182505771Y-185457200D01*
X182505771Y-185600057D01*
X184291485Y-185957200D02*
X185005771Y-185957200D01*
X184148628Y-186385771D02*
X184648628Y-184885771D01*
X185148628Y-186385771D01*
X185648628Y-185600057D02*
X186148628Y-185600057D01*
X186362914Y-186385771D02*
X185648628Y-186385771D01*
X185648628Y-184885771D01*
X186362914Y-184885771D01*
X187291485Y-184885771D02*
X187434342Y-184885771D01*
X187577200Y-184957200D01*
X187648628Y-185028628D01*
X187720057Y-185171485D01*
X187791485Y-185457200D01*
X187791485Y-185814342D01*
X187720057Y-186100057D01*
X187648628Y-186242914D01*
X187577200Y-186314342D01*
X187434342Y-186385771D01*
X187291485Y-186385771D01*
X187148628Y-186314342D01*
X187077200Y-186242914D01*
X187005771Y-186100057D01*
X186934342Y-185814342D01*
X186934342Y-185457200D01*
X187005771Y-185171485D01*
X187077200Y-185028628D01*
X187148628Y-184957200D01*
X187291485Y-184885771D01*
X189220057Y-186385771D02*
X188362914Y-186385771D01*
X188791485Y-186385771D02*
X188791485Y-184885771D01*
X188648628Y-185100057D01*
X188505771Y-185242914D01*
X188362914Y-185314342D01*
X189862914Y-186242914D02*
X189934342Y-186314342D01*
X189862914Y-186385771D01*
X189791485Y-186314342D01*
X189862914Y-186242914D01*
X189862914Y-186385771D01*
X191362914Y-186385771D02*
X190505771Y-186385771D01*
X190934342Y-186385771D02*
X190934342Y-184885771D01*
X190791485Y-185100057D01*
X190648628Y-185242914D01*
X190505771Y-185314342D01*
X191934342Y-185028628D02*
X192005771Y-184957200D01*
X192148628Y-184885771D01*
X192505771Y-184885771D01*
X192648628Y-184957200D01*
X192720057Y-185028628D01*
X192791485Y-185171485D01*
X192791485Y-185314342D01*
X192720057Y-185528628D01*
X191862914Y-186385771D01*
X192791485Y-186385771D01*
X193434342Y-186242914D02*
X193505771Y-186314342D01*
X193434342Y-186385771D01*
X193362914Y-186314342D01*
X193434342Y-186242914D01*
X193434342Y-186385771D01*
X194791485Y-185385771D02*
X194791485Y-186385771D01*
X194434342Y-184814342D02*
X194077200Y-185885771D01*
X195005771Y-185885771D01*
X195505771Y-185028628D02*
X195577200Y-184957200D01*
X195720057Y-184885771D01*
X196077200Y-184885771D01*
X196220057Y-184957200D01*
X196291485Y-185028628D01*
X196362914Y-185171485D01*
X196362914Y-185314342D01*
X196291485Y-185528628D01*
X195434342Y-186385771D01*
X196362914Y-186385771D01*
X197005771Y-186242914D02*
X197077200Y-186314342D01*
X197005771Y-186385771D01*
X196934342Y-186314342D01*
X197005771Y-186242914D01*
X197005771Y-186385771D01*
X198505771Y-186385771D02*
X197648628Y-186385771D01*
X198077200Y-186385771D02*
X198077200Y-184885771D01*
X197934342Y-185100057D01*
X197791485Y-185242914D01*
X197648628Y-185314342D01*
X199434342Y-184885771D02*
X199577200Y-184885771D01*
X199720057Y-184957200D01*
X199791485Y-185028628D01*
X199862914Y-185171485D01*
X199934342Y-185457200D01*
X199934342Y-185814342D01*
X199862914Y-186100057D01*
X199791485Y-186242914D01*
X199720057Y-186314342D01*
X199577200Y-186385771D01*
X199434342Y-186385771D01*
X199291485Y-186314342D01*
X199220057Y-186242914D01*
X199148628Y-186100057D01*
X199077200Y-185814342D01*
X199077200Y-185457200D01*
X199148628Y-185171485D01*
X199220057Y-185028628D01*
X199291485Y-184957200D01*
X199434342Y-184885771D01*
X200862914Y-184885771D02*
X201005771Y-184885771D01*
X201148628Y-184957200D01*
X201220057Y-185028628D01*
X201291485Y-185171485D01*
X201362914Y-185457200D01*
X201362914Y-185814342D01*
X201291485Y-186100057D01*
X201220057Y-186242914D01*
X201148628Y-186314342D01*
X201005771Y-186385771D01*
X200862914Y-186385771D01*
X200720057Y-186314342D01*
X200648628Y-186242914D01*
X200577200Y-186100057D01*
X200505771Y-185814342D01*
X200505771Y-185457200D01*
X200577200Y-185171485D01*
X200648628Y-185028628D01*
X200720057Y-184957200D01*
X200862914Y-184885771D01*
X202005771Y-186242914D02*
X202077200Y-186314342D01*
X202005771Y-186385771D01*
X201934342Y-186314342D01*
X202005771Y-186242914D01*
X202005771Y-186385771D01*
X202720057Y-186385771D02*
X202720057Y-184885771D01*
X202862914Y-185814342D02*
X203291485Y-186385771D01*
X203291485Y-185385771D02*
X202720057Y-185957200D01*
X203934342Y-186385771D02*
X203934342Y-185385771D01*
X203934342Y-184885771D02*
X203862914Y-184957200D01*
X203934342Y-185028628D01*
X204005771Y-184957200D01*
X203934342Y-184885771D01*
X203934342Y-185028628D01*
X205291485Y-186314342D02*
X205148628Y-186385771D01*
X204862914Y-186385771D01*
X204720057Y-186314342D01*
X204648628Y-186242914D01*
X204577200Y-186100057D01*
X204577200Y-185671485D01*
X204648628Y-185528628D01*
X204720057Y-185457200D01*
X204862914Y-185385771D01*
X205148628Y-185385771D01*
X205291485Y-185457200D01*
X206577200Y-186385771D02*
X206577200Y-185600057D01*
X206505771Y-185457200D01*
X206362914Y-185385771D01*
X206077200Y-185385771D01*
X205934342Y-185457200D01*
X206577200Y-186314342D02*
X206434342Y-186385771D01*
X206077200Y-186385771D01*
X205934342Y-186314342D01*
X205862914Y-186171485D01*
X205862914Y-186028628D01*
X205934342Y-185885771D01*
X206077200Y-185814342D01*
X206434342Y-185814342D01*
X206577200Y-185742914D01*
X207934342Y-186385771D02*
X207934342Y-184885771D01*
X207934342Y-186314342D02*
X207791485Y-186385771D01*
X207505771Y-186385771D01*
X207362914Y-186314342D01*
X207291485Y-186242914D01*
X207220057Y-186100057D01*
X207220057Y-185671485D01*
X207291485Y-185528628D01*
X207362914Y-185457200D01*
X207505771Y-185385771D01*
X207791485Y-185385771D01*
X207934342Y-185457200D01*
X208291485Y-186528628D02*
X209434342Y-186528628D01*
X209791485Y-185385771D02*
X209791485Y-186885771D01*
X209791485Y-185457200D02*
X209934342Y-185385771D01*
X210220057Y-185385771D01*
X210362914Y-185457200D01*
X210434342Y-185528628D01*
X210505771Y-185671485D01*
X210505771Y-186100057D01*
X210434342Y-186242914D01*
X210362914Y-186314342D01*
X210220057Y-186385771D01*
X209934342Y-186385771D01*
X209791485Y-186314342D01*
X211791485Y-186314342D02*
X211648628Y-186385771D01*
X211362914Y-186385771D01*
X211220057Y-186314342D01*
X211148628Y-186242914D01*
X211077200Y-186100057D01*
X211077200Y-185671485D01*
X211148628Y-185528628D01*
X211220057Y-185457200D01*
X211362914Y-185385771D01*
X211648628Y-185385771D01*
X211791485Y-185457200D01*
X212434342Y-186385771D02*
X212434342Y-184885771D01*
X212434342Y-185457200D02*
X212577200Y-185385771D01*
X212862914Y-185385771D01*
X213005771Y-185457200D01*
X213077200Y-185528628D01*
X213148628Y-185671485D01*
X213148628Y-186100057D01*
X213077200Y-186242914D01*
X213005771Y-186314342D01*
X212862914Y-186385771D01*
X212577200Y-186385771D01*
X212434342Y-186314342D01*
D10*
D11*
X177002200Y-181507200D02*
X285002200Y-181507200D01*
D10*
D11*
X178362914Y-183614342D02*
X178577200Y-183685771D01*
X178934342Y-183685771D01*
X179077200Y-183614342D01*
X179148628Y-183542914D01*
X179220057Y-183400057D01*
X179220057Y-183257200D01*
X179148628Y-183114342D01*
X179077200Y-183042914D01*
X178934342Y-182971485D01*
X178648628Y-182900057D01*
X178505771Y-182828628D01*
X178434342Y-182757200D01*
X178362914Y-182614342D01*
X178362914Y-182471485D01*
X178434342Y-182328628D01*
X178505771Y-182257200D01*
X178648628Y-182185771D01*
X179005771Y-182185771D01*
X179220057Y-182257200D01*
X179862914Y-183685771D02*
X179862914Y-182185771D01*
X180505771Y-183685771D02*
X180505771Y-182900057D01*
X180434342Y-182757200D01*
X180291485Y-182685771D01*
X180077200Y-182685771D01*
X179934342Y-182757200D01*
X179862914Y-182828628D01*
X181791485Y-183614342D02*
X181648628Y-183685771D01*
X181362914Y-183685771D01*
X181220057Y-183614342D01*
X181148628Y-183471485D01*
X181148628Y-182900057D01*
X181220057Y-182757200D01*
X181362914Y-182685771D01*
X181648628Y-182685771D01*
X181791485Y-182757200D01*
X181862914Y-182900057D01*
X181862914Y-183042914D01*
X181148628Y-183185771D01*
X183077200Y-183614342D02*
X182934342Y-183685771D01*
X182648628Y-183685771D01*
X182505771Y-183614342D01*
X182434342Y-183471485D01*
X182434342Y-182900057D01*
X182505771Y-182757200D01*
X182648628Y-182685771D01*
X182934342Y-182685771D01*
X183077200Y-182757200D01*
X183148628Y-182900057D01*
X183148628Y-183042914D01*
X182434342Y-183185771D01*
X183577200Y-182685771D02*
X184148628Y-182685771D01*
X183791485Y-182185771D02*
X183791485Y-183471485D01*
X183862914Y-183614342D01*
X184005771Y-183685771D01*
X184148628Y-183685771D01*
X184648628Y-183542914D02*
X184720057Y-183614342D01*
X184648628Y-183685771D01*
X184577200Y-183614342D01*
X184648628Y-183542914D01*
X184648628Y-183685771D01*
X184648628Y-182757200D02*
X184720057Y-182828628D01*
X184648628Y-182900057D01*
X184577200Y-182828628D01*
X184648628Y-182757200D01*
X184648628Y-182900057D01*
D10*
D12*
X179197200Y-180685771D02*
X179197200Y-179900057D01*
X179125771Y-179757200D01*
X178982914Y-179685771D01*
X178697200Y-179685771D01*
X178554342Y-179757200D01*
X179197200Y-180614342D02*
X179054342Y-180685771D01*
X178697200Y-180685771D01*
X178554342Y-180614342D01*
X178482914Y-180471485D01*
X178482914Y-180328628D01*
X178554342Y-180185771D01*
X178697200Y-180114342D01*
X179054342Y-180114342D01*
X179197200Y-180042914D01*
X179840057Y-180614342D02*
X179982914Y-180685771D01*
X180268628Y-180685771D01*
X180411485Y-180614342D01*
X180482914Y-180471485D01*
X180482914Y-180400057D01*
X180411485Y-180257200D01*
X180268628Y-180185771D01*
X180054342Y-180185771D01*
X179911485Y-180114342D01*
X179840057Y-179971485D01*
X179840057Y-179900057D01*
X179911485Y-179757200D01*
X180054342Y-179685771D01*
X180268628Y-179685771D01*
X180411485Y-179757200D01*
X180911485Y-179685771D02*
X181482914Y-179685771D01*
X181125771Y-179185771D02*
X181125771Y-180471485D01*
X181197200Y-180614342D01*
X181340057Y-180685771D01*
X181482914Y-180685771D01*
X181982914Y-180685771D02*
X181982914Y-179685771D01*
X181982914Y-179971485D02*
X182054342Y-179828628D01*
X182125771Y-179757200D01*
X182268628Y-179685771D01*
X182411485Y-179685771D01*
X183125771Y-180685771D02*
X182982914Y-180614342D01*
X182911485Y-180542914D01*
X182840057Y-180400057D01*
X182840057Y-179971485D01*
X182911485Y-179828628D01*
X182982914Y-179757200D01*
X183125771Y-179685771D01*
X183340057Y-179685771D01*
X183482914Y-179757200D01*
X183554342Y-179828628D01*
X183625771Y-179971485D01*
X183625771Y-180400057D01*
X183554342Y-180542914D01*
X183482914Y-180614342D01*
X183340057Y-180685771D01*
X183125771Y-180685771D01*
X184840057Y-180614342D02*
X184697200Y-180685771D01*
X184411485Y-180685771D01*
X184268628Y-180614342D01*
X184197200Y-180471485D01*
X184197200Y-179900057D01*
X184268628Y-179757200D01*
X184411485Y-179685771D01*
X184697200Y-179685771D01*
X184840057Y-179757200D01*
X184911485Y-179900057D01*
X184911485Y-180042914D01*
X184197200Y-180185771D01*
X185768628Y-180685771D02*
X185625771Y-180614342D01*
X185554342Y-180471485D01*
X185554342Y-179185771D01*
X186911485Y-180614342D02*
X186768628Y-180685771D01*
X186482914Y-180685771D01*
X186340057Y-180614342D01*
X186268628Y-180471485D01*
X186268628Y-179900057D01*
X186340057Y-179757200D01*
X186482914Y-179685771D01*
X186768628Y-179685771D01*
X186911485Y-179757200D01*
X186982914Y-179900057D01*
X186982914Y-180042914D01*
X186268628Y-180185771D01*
X188268628Y-180614342D02*
X188125771Y-180685771D01*
X187840057Y-180685771D01*
X187697200Y-180614342D01*
X187625771Y-180542914D01*
X187554342Y-180400057D01*
X187554342Y-179971485D01*
X187625771Y-179828628D01*
X187697200Y-179757200D01*
X187840057Y-179685771D01*
X188125771Y-179685771D01*
X188268628Y-179757200D01*
X188697200Y-179685771D02*
X189268628Y-179685771D01*
X188911485Y-179185771D02*
X188911485Y-180471485D01*
X188982914Y-180614342D01*
X189125771Y-180685771D01*
X189268628Y-180685771D01*
X189768628Y-180685771D02*
X189768628Y-179685771D01*
X189768628Y-179971485D02*
X189840057Y-179828628D01*
X189911485Y-179757200D01*
X190054342Y-179685771D01*
X190197200Y-179685771D01*
X190911485Y-180685771D02*
X190768628Y-180614342D01*
X190697200Y-180542914D01*
X190625771Y-180400057D01*
X190625771Y-179971485D01*
X190697200Y-179828628D01*
X190768628Y-179757200D01*
X190911485Y-179685771D01*
X191125771Y-179685771D01*
X191268628Y-179757200D01*
X191340057Y-179828628D01*
X191411485Y-179971485D01*
X191411485Y-180400057D01*
X191340057Y-180542914D01*
X191268628Y-180614342D01*
X191125771Y-180685771D01*
X190911485Y-180685771D01*
X192054342Y-179685771D02*
X192054342Y-180685771D01*
X192054342Y-179828628D02*
X192125771Y-179757200D01*
X192268628Y-179685771D01*
X192482914Y-179685771D01*
X192625771Y-179757200D01*
X192697200Y-179900057D01*
X192697200Y-180685771D01*
X193411485Y-180685771D02*
X193411485Y-179685771D01*
X193411485Y-179185771D02*
X193340057Y-179257200D01*
X193411485Y-179328628D01*
X193482914Y-179257200D01*
X193411485Y-179185771D01*
X193411485Y-179328628D01*
X194768628Y-180614342D02*
X194625771Y-180685771D01*
X194340057Y-180685771D01*
X194197200Y-180614342D01*
X194125771Y-180542914D01*
X194054342Y-180400057D01*
X194054342Y-179971485D01*
X194125771Y-179828628D01*
X194197200Y-179757200D01*
X194340057Y-179685771D01*
X194625771Y-179685771D01*
X194768628Y-179757200D01*
X196340057Y-179971485D02*
X196268628Y-179900057D01*
X196125771Y-179828628D01*
X195982914Y-179828628D01*
X195840057Y-179900057D01*
X195768628Y-179971485D01*
X195697200Y-180114342D01*
X195697200Y-180257200D01*
X195768628Y-180400057D01*
X195840057Y-180471485D01*
X195982914Y-180542914D01*
X196125771Y-180542914D01*
X196268628Y-180471485D01*
X196340057Y-180400057D01*
X196340057Y-179828628D02*
X196340057Y-180400057D01*
X196411485Y-180471485D01*
X196482914Y-180471485D01*
X196625771Y-180400057D01*
X196697200Y-180257200D01*
X196697200Y-179900057D01*
X196554342Y-179685771D01*
X196340057Y-179542914D01*
X196054342Y-179471485D01*
X195768628Y-179542914D01*
X195554342Y-179685771D01*
X195411485Y-179900057D01*
X195340057Y-180185771D01*
X195411485Y-180471485D01*
X195554342Y-180685771D01*
X195768628Y-180828628D01*
X196054342Y-180900057D01*
X196340057Y-180828628D01*
X196554342Y-180685771D01*
D10*
D11*
X197002200Y-191507200D02*
X197002200Y-194507200D01*
D10*
D11*
X261002200Y-191507200D02*
X261002200Y-198007200D01*
X24006380Y-102000000D02*
X24006380Y-102571428D01*
X24006380Y-102285714D02*
X23006380Y-102285714D01*
X23149238Y-102380952D01*
X23244476Y-102476190D01*
X23292095Y-102571428D01*
X23006380Y-101380952D02*
X23006380Y-101285714D01*
X23054000Y-101190476D01*
X23101619Y-101142857D01*
X23196857Y-101095238D01*
X23387333Y-101047619D01*
X23625428Y-101047619D01*
X23815904Y-101095238D01*
X23911142Y-101142857D01*
X23958761Y-101190476D01*
X24006380Y-101285714D01*
X24006380Y-101380952D01*
X23958761Y-101476190D01*
X23911142Y-101523809D01*
X23815904Y-101571428D01*
X23625428Y-101619047D01*
X23387333Y-101619047D01*
X23196857Y-101571428D01*
X23101619Y-101523809D01*
X23054000Y-101476190D01*
X23006380Y-101380952D01*
X23006380Y-100428571D02*
X23006380Y-100333333D01*
X23054000Y-100238095D01*
X23101619Y-100190476D01*
X23196857Y-100142857D01*
X23387333Y-100095238D01*
X23625428Y-100095238D01*
X23815904Y-100142857D01*
X23911142Y-100190476D01*
X23958761Y-100238095D01*
X24006380Y-100333333D01*
X24006380Y-100428571D01*
X23958761Y-100523809D01*
X23911142Y-100571428D01*
X23815904Y-100619047D01*
X23625428Y-100666666D01*
X23387333Y-100666666D01*
X23196857Y-100619047D01*
X23101619Y-100571428D01*
X23054000Y-100523809D01*
X23006380Y-100428571D01*
X24006380Y-99666666D02*
X23339714Y-99666666D01*
X23434952Y-99666666D02*
X23387333Y-99619047D01*
X23339714Y-99523809D01*
X23339714Y-99380952D01*
X23387333Y-99285714D01*
X23482571Y-99238095D01*
X24006380Y-99238095D01*
X23482571Y-99238095D02*
X23387333Y-99190476D01*
X23339714Y-99095238D01*
X23339714Y-98952380D01*
X23387333Y-98857142D01*
X23482571Y-98809523D01*
X24006380Y-98809523D01*
X24006380Y-98333333D02*
X23339714Y-98333333D01*
X23434952Y-98333333D02*
X23387333Y-98285714D01*
X23339714Y-98190476D01*
X23339714Y-98047619D01*
X23387333Y-97952380D01*
X23482571Y-97904761D01*
X24006380Y-97904761D01*
X23482571Y-97904761D02*
X23387333Y-97857142D01*
X23339714Y-97761904D01*
X23339714Y-97619047D01*
X23387333Y-97523809D01*
X23482571Y-97476190D01*
X24006380Y-97476190D01*
X24854000Y-150000000D02*
X24854000Y-50000000D01*
X50000000Y-150000000D02*
X24267579Y-150000000D01*
X50000000Y-50000000D02*
X24267579Y-50000000D01*
X24854000Y-50000000D02*
X25440421Y-51126504D01*
X24854000Y-50000000D02*
X24267579Y-51126504D01*
X24854000Y-150000000D02*
X25440421Y-148873496D01*
X24854000Y-150000000D02*
X24267579Y-148873496D01*
X128000000Y-34979380D02*
X127428571Y-34979380D01*
X127714285Y-34979380D02*
X127714285Y-33979380D01*
X127619047Y-34122238D01*
X127523809Y-34217476D01*
X127428571Y-34265095D01*
X128857142Y-33979380D02*
X128666666Y-33979380D01*
X128571428Y-34027000D01*
X128523809Y-34074619D01*
X128428571Y-34217476D01*
X128380952Y-34407952D01*
X128380952Y-34788904D01*
X128428571Y-34884142D01*
X128476190Y-34931761D01*
X128571428Y-34979380D01*
X128761904Y-34979380D01*
X128857142Y-34931761D01*
X128904761Y-34884142D01*
X128952380Y-34788904D01*
X128952380Y-34550809D01*
X128904761Y-34455571D01*
X128857142Y-34407952D01*
X128761904Y-34360333D01*
X128571428Y-34360333D01*
X128476190Y-34407952D01*
X128428571Y-34455571D01*
X128380952Y-34550809D01*
X129571428Y-33979380D02*
X129666666Y-33979380D01*
X129761904Y-34027000D01*
X129809523Y-34074619D01*
X129857142Y-34169857D01*
X129904761Y-34360333D01*
X129904761Y-34598428D01*
X129857142Y-34788904D01*
X129809523Y-34884142D01*
X129761904Y-34931761D01*
X129666666Y-34979380D01*
X129571428Y-34979380D01*
X129476190Y-34931761D01*
X129428571Y-34884142D01*
X129380952Y-34788904D01*
X129333333Y-34598428D01*
X129333333Y-34360333D01*
X129380952Y-34169857D01*
X129428571Y-34074619D01*
X129476190Y-34027000D01*
X129571428Y-33979380D01*
X130333333Y-34979380D02*
X130333333Y-34312714D01*
X130333333Y-34407952D02*
X130380952Y-34360333D01*
X130476190Y-34312714D01*
X130619047Y-34312714D01*
X130714285Y-34360333D01*
X130761904Y-34455571D01*
X130761904Y-34979380D01*
X130761904Y-34455571D02*
X130809523Y-34360333D01*
X130904761Y-34312714D01*
X131047619Y-34312714D01*
X131142857Y-34360333D01*
X131190476Y-34455571D01*
X131190476Y-34979380D01*
X131666666Y-34979380D02*
X131666666Y-34312714D01*
X131666666Y-34407952D02*
X131714285Y-34360333D01*
X131809523Y-34312714D01*
X131952380Y-34312714D01*
X132047619Y-34360333D01*
X132095238Y-34455571D01*
X132095238Y-34979380D01*
X132095238Y-34455571D02*
X132142857Y-34360333D01*
X132238095Y-34312714D01*
X132380952Y-34312714D01*
X132476190Y-34360333D01*
X132523809Y-34455571D01*
X132523809Y-34979380D01*
X50000000Y-35827000D02*
X210000000Y-35827000D01*
X50000000Y-50000000D02*
X50000000Y-35240579D01*
X210000000Y-50000000D02*
X210000000Y-35240579D01*
X210000000Y-35827000D02*
X208873496Y-36413421D01*
X210000000Y-35827000D02*
X208873496Y-35240579D01*
X50000000Y-35827000D02*
X51126504Y-36413421D01*
X50000000Y-35827000D02*
X51126504Y-35240579D01*
D14*
X51666666Y-150000000D02*
G75*
G03*
X51666666Y-150000000I-1666666J0D01*
G01*
X47500000Y-150000000D02*
X52500000Y-150000000D01*
X50000000Y-147500000D02*
X50000000Y-152500000D01*
X50000000Y-50000000D02*
X50000000Y-150000000D01*
X210000000Y-50000000D02*
X50000000Y-50000000D01*
X210000000Y-150000000D02*
X210000000Y-50000000D01*
X50000000Y-150000000D02*
X210000000Y-150000000D01*
M02*
