M48
; DRILL file {KiCad 5.1.10-88a1d61d58~88~ubuntu16.04.1} date Sat Oct  2 00:42:28 2021
; FORMAT={-:-/ absolute / metric / decimal}
; #@! TF.CreationDate,2021-10-02T00:42:28+02:00
; #@! TF.GenerationSoftware,Kicad,Pcbnew,5.1.10-88a1d61d58~88~ubuntu16.04.1
; #@! TF.FileFunction,Plated,1,2,PTH
FMAT,2
METRIC
T1C0.400
T2C1.000
T3C1.020
T4C1.100
T5C1.200
T6C1.300
T7C2.500
%
G90
G05
T1
X51.181Y-51.181
X51.181Y-148.844
X57.747Y-126.886
X57.785Y-94.488
X58.039Y-79.375
X58.039Y-97.917
X58.128Y-117.996
X60.325Y-106.299
X70.485Y-118.11
X70.485Y-126.492
X70.828Y-55.004
X82.55Y-126.873
X82.677Y-131.318
X85.803Y-107.776
X86.587Y-108.557
X87.596Y-109.338
X88.376Y-110.119
X88.481Y-115.964
X88.608Y-85.103
X89.281Y-148.082
X89.37Y-110.9
X89.662Y-78.486
X90.513Y-111.9
X91.186Y-110.236
X92.202Y-86.741
X92.291Y-113.678
X92.291Y-116.218
X92.291Y-118.758
X92.291Y-121.298
X92.291Y-123.838
X92.291Y-126.378
X92.291Y-128.918
X93.599Y-141.732
X94.234Y-97.282
X95.631Y-83.947
X98.044Y-87.122
X98.171Y-97.282
X98.26Y-139.332
X98.552Y-84.074
X98.806Y-100.584
X98.806Y-136.779
X98.806Y-141.732
X101.6Y-95.123
X101.981Y-71.755
X102.578Y-85.611
X103.886Y-95.377
X105.664Y-147.447
X106.261Y-115.456
X106.553Y-85.09
X106.807Y-98.044
X109.855Y-143.256
X109.982Y-114.046
X109.982Y-116.967
X110.49Y-103.886
X110.617Y-98.552
X110.871Y-86.233
X113.284Y-103.251
X113.284Y-142.113
X113.284Y-145.161
X113.411Y-119.253
X113.792Y-106.045
X114.427Y-61.722
X114.681Y-82.296
X114.681Y-88.265
X115.062Y-99.949
X115.697Y-136.271
X116.078Y-95.123
X116.421Y-126.378
X116.421Y-128.918
X116.421Y-131.458
X117.729Y-91.44
X118.58Y-121.552
X118.58Y-123.457
X118.79Y-85.313
X119.151Y-118.822
X119.469Y-60.211
X119.469Y-70.498
X120.231Y-100.343
X120.269Y-58.801
X120.396Y-81.661
X120.396Y-109.728
X120.523Y-107.95
X120.65Y-125.603
X120.919Y-110.643
X121.158Y-96.393
X121.158Y-98.806
X122.174Y-112.141
X122.174Y-133.35
X124.041Y-134.62
X124.041Y-135.89
X124.041Y-113.424
X124.041Y-114.44
X124.041Y-115.456
X124.333Y-92.329
X125.095Y-94.996
X125.476Y-99.695
X125.819Y-92.469
X127.724Y-105.829
X128.016Y-87.249
X128.27Y-132.334
X128.74Y-89.929
X129.375Y-89.294
X130.01Y-82.08
X130.01Y-88.659
X131.191Y-104.14
X131.953Y-97.917
X132.08Y-136.906
X132.715Y-92.837
X132.715Y-93.853
X132.715Y-94.869
X132.931Y-99.835
X133.604Y-92.329
X133.604Y-93.345
X133.604Y-94.361
X133.604Y-95.377
X133.947Y-61.1
X134.493Y-92.837
X134.493Y-93.853
X134.493Y-94.869
X135.001Y-105.41
X135.128Y-128.27
X135.255Y-92.329
X135.255Y-93.345
X135.255Y-94.361
X135.255Y-95.377
X135.509Y-103.759
X135.763Y-136.144
X136.144Y-87.503
X136.144Y-92.837
X136.144Y-93.853
X136.144Y-94.869
X136.652Y-99.568
X136.906Y-92.329
X136.906Y-93.345
X136.906Y-94.361
X136.906Y-95.377
X137.668Y-60.325
X137.668Y-92.837
X137.668Y-93.853
X137.668Y-94.869
X138.049Y-83.439
X138.646Y-92.342
X138.646Y-93.358
X138.646Y-94.374
X138.646Y-95.39
X139.535Y-92.85
X139.535Y-93.866
X139.535Y-94.882
X139.954Y-134.874
X140.208Y-57.785
X140.208Y-67.056
X140.208Y-129.921
X140.258Y-132.284
X140.716Y-62.23
X141.478Y-83.947
X141.478Y-137.16
X141.478Y-148.463
X141.605Y-65.151
X143.383Y-64.897
X143.491Y-80.264
X143.51Y-93.218
X144.145Y-58.547
X144.272Y-69.469
X144.272Y-86.233
X144.272Y-136.144
X144.526Y-55.626
X144.833Y-66.534
X145.034Y-89.281
X145.053Y-68.593
X145.104Y-65.474
X145.885Y-99.073
X146.812Y-131.318
X147.447Y-121.793
X147.447Y-125.984
X147.701Y-68.072
X147.701Y-103.378
X147.828Y-85.217
X148.844Y-130.537
X148.971Y-132.207
X149.606Y-140.843
X153.035Y-53.848
X153.035Y-136.271
X153.289Y-146.304
X155.321Y-51.435
X155.829Y-134.239
X156.718Y-148.463
X157.823Y-58.293
X158.496Y-142.367
X163.449Y-141.732
X164.719Y-51.435
X165.976Y-63.706
X165.976Y-81.613
X165.989Y-99.602
X165.989Y-117.602
X167.221Y-57.404
X176.492Y-56.515
X178.181Y-132.588
X187.579Y-132.588
X187.693Y-63.706
X187.693Y-81.613
X187.706Y-99.602
X187.706Y-117.602
X190.5Y-131.826
X194.564Y-51.435
X195.453Y-139.954
X196.977Y-74.676
X197.104Y-92.583
X197.104Y-110.49
X200.025Y-89.027
X200.025Y-107.061
X201.168Y-74.676
X201.168Y-92.583
X201.168Y-110.49
X203.962Y-89.027
X203.962Y-107.061
X204.47Y-94.996
X204.724Y-113.03
X204.851Y-77.089
X208.788Y-51.181
X208.788Y-148.844
T2
X96.736Y-107.836
X96.736Y-110.376
X96.736Y-112.916
X96.736Y-115.456
X96.736Y-117.996
X96.736Y-120.536
X96.736Y-123.076
X96.736Y-125.616
X96.736Y-128.156
X96.736Y-130.696
X96.736Y-133.236
X96.736Y-135.776
X96.736Y-138.316
X96.736Y-140.856
X96.736Y-143.396
X111.976Y-107.836
X111.976Y-110.376
X111.976Y-112.916
X111.976Y-115.456
X111.976Y-117.996
X111.976Y-120.536
X111.976Y-123.076
X111.976Y-125.616
X111.976Y-128.156
X111.976Y-130.696
X111.976Y-133.236
X111.976Y-135.776
X111.976Y-138.316
X111.976Y-140.856
X111.976Y-143.396
X121.882Y-53.734
X121.882Y-56.274
X124.422Y-53.734
X124.422Y-56.274
X126.962Y-53.734
X126.962Y-56.274
X129.502Y-53.734
X129.502Y-56.274
X133.82Y-53.734
X133.82Y-56.274
X136.36Y-53.734
X136.36Y-56.274
X138.9Y-53.734
X138.9Y-56.274
X143.218Y-142.888
X143.218Y-145.428
X143.345Y-53.734
X145.758Y-142.888
X145.758Y-145.428
X145.885Y-53.734
X148.298Y-142.888
X148.298Y-145.428
X148.425Y-53.734
X150.965Y-53.734
X155.283Y-53.734
X157.823Y-53.734
X160.363Y-53.734
X164.681Y-53.734
X167.221Y-53.734
X169.761Y-53.734
X173.952Y-53.734
X176.492Y-53.734
X179.032Y-53.734
X183.35Y-53.734
X185.89Y-53.734
X188.43Y-53.734
X207.137Y-76.454
X207.137Y-78.994
X207.137Y-81.534
X207.137Y-94.488
X207.137Y-97.028
X207.137Y-99.568
X207.137Y-112.522
X207.137Y-115.062
X207.137Y-117.602
T3
X149.987Y-70.104
X149.987Y-88.011
X150.0Y-106.0
X150.0Y-124.0
X201.977Y-70.104
X201.977Y-88.011
X201.99Y-106.0
X201.99Y-124.0
T4
X100.419Y-86.731
X100.419Y-93.231
X104.919Y-86.731
X104.919Y-93.231
X108.42Y-53.203
X108.42Y-59.703
X108.42Y-63.49
X108.42Y-69.99
X108.42Y-80.0
X108.42Y-86.5
X108.42Y-93.208
X108.42Y-99.708
X112.92Y-53.203
X112.92Y-59.703
X112.92Y-63.49
X112.92Y-69.99
X112.92Y-80.0
X112.92Y-86.5
X112.92Y-93.208
X112.92Y-99.708
X116.421Y-86.604
X116.421Y-93.104
X120.921Y-86.604
X120.921Y-93.104
T5
X55.0Y-93.901
X55.0Y-96.441
X55.0Y-98.981
X55.0Y-101.521
X55.0Y-104.061
X55.0Y-106.601
X55.0Y-109.141
X55.0Y-111.681
X55.0Y-114.221
X55.0Y-116.761
X55.0Y-119.301
X55.0Y-121.841
X55.0Y-124.381
X55.0Y-126.921
X55.0Y-129.461
X55.0Y-132.001
T6
X95.038Y-64.91
X97.538Y-54.91
X100.038Y-64.91
X118.961Y-143.142
X124.041Y-143.142
X131.788Y-143.142
X136.868Y-143.142
X155.918Y-143.142
X160.998Y-143.142
X166.078Y-143.142
X174.46Y-143.142
X179.54Y-143.142
X187.668Y-143.142
X192.748Y-143.142
X197.828Y-143.142
T7
X55.0Y-62.501
X55.0Y-137.5
X86.001Y-62.501
X86.001Y-137.5
T0
M30
